<?xml version="1.0" encoding="UTF-8"?>
<svg id="Objects" xmlns="http://www.w3.org/2000/svg" viewBox="0 0 1106.72 1075.15">
  <defs>
    <style>
      .cls-1 {
        fill: #fff;
      }
    </style>
  </defs>
  <path class="cls-1" d="M1091.64,1075.15H15.08c-8.33,0-15.08-6.75-15.08-15.08L.16,15.08C.16,6.75,6.92,0,15.24,0h363.27c4.26,0,8.32,1.8,11.18,4.96l142.39,157.16h559.56c8.33,0,15.08,6.75,15.08,15.08v882.87c0,8.33-6.75,15.08-15.08,15.08ZM30.16,1044.98h1046.39V192.28h-551.17c-4.26,0-8.32-1.79-11.18-4.95L371.82,30.16H30.32l-.16,1014.82Z"/>
  <path class="cls-1" d="M1083.71,398.84H23.01c-8.33,0-15.08-6.75-15.08-15.08s6.75-15.08,15.08-15.08h1060.7c8.33,0,15.08,6.75,15.08,15.08s-6.75,15.08-15.08,15.08Z"/>
</svg>