<?xml version="1.0" encoding="UTF-8"?>
<svg id="_Слой_1" data-name="Слой 1" xmlns="http://www.w3.org/2000/svg" viewBox="0 0 268.58 268.58">
  <defs>
    <style>
      .cls-1 {
        fill: #3fc0ef;
      }

      .cls-2 {
        fill: #f1f5f6;
      }

      .cls-3 {
        fill: #fff;
      }
    </style>
  </defs>
  <path class="cls-3" d="M198.26,132c-3.08-2.79-7.06-4.32-11.2-4.32-4.71,0-9.23,2.01-12.4,5.51l-4.26,4.71c-1.55,1.71-2.71,3.69-3.45,5.88l-.38,1.13c-.25.75-.8,1.37-1.52,1.7-.72.33-1.54.36-2.28.07l-1.12-.44c-19.69-7.77-35.73-22.49-45.17-41.45l-.6-1.21c-.38-.76-.4-1.65-.06-2.44.34-.78,1-1.37,1.82-1.62l1.29-.39c2.9-.87,5.52-2.53,7.56-4.79h0s4.26-4.71,4.26-4.71c3-3.31,4.52-7.59,4.3-12.05-.22-4.46-2.17-8.56-5.48-11.56l-7.2-6.5c-3.08-2.78-7.06-4.32-11.2-4.32-4.72,0-9.24,2-12.4,5.5l-4.26,4.72c-.48.53-.93,1.1-1.34,1.69-.07.11-.15.2-.23.3l-.2.22c-.08.09-.17.18-.27.26-2.84,2.43-6.39,9.58-4.5,19.32,8.92,46.46,48.05,81.85,95.16,86.07,5.64.51,10.99-.59,15.08-3.1,1.61-.93,2.99-2.04,4.15-3.33l4.27-4.72c6.17-6.83,5.65-17.42-1.19-23.6l-7.2-6.51Z"/>
  <circle class="cls-2" cx="134.29" cy="134.29" r="134.29"/>
  <g>
    <path class="cls-1" d="M66.8,114.4c-6.18,6.18-9.57,14.39-9.57,23.11,0,18.01,14.66,32.67,32.68,32.67h0c8.72,0,16.92-3.4,23.1-9.58,3.29-3.31,5.78-7.19,7.4-11.43h30.5c4.71,12.26,16.59,21.01,30.49,21.01h0c8.72,0,16.92-3.4,23.1-9.58s9.58-14.39,9.58-23.11c0-18.01-14.67-32.67-32.69-32.67-5.26,0-10.34,1.26-14.89,3.6-1.9-2.91-4.17-5.68-6.9-8.17-1.58-1.45-3.97-1.56-5.68-.25-.18.14-18.18,13.54-35.34,1.28l-9.06-14.01c6,7.32,15.12,12,25.3,12h0c8.73,0,16.94-3.41,23.11-9.59,6.18-6.19,9.59-14.4,9.59-23.13,0-18.03-14.68-32.7-32.71-32.7-8.73,0-16.94,3.4-23.13,9.59-6.18,6.19-9.59,14.4-9.59,23.13,0,5.28,1.29,10.27,3.53,14.69l-10.9-16.86c-3.34-5.15-10.24-6.64-15.39-3.3-5.15,3.34-6.64,10.23-3.31,15.39l18.56,28.7c-1.53-.23-3.1-.38-4.69-.38-8.72,0-16.92,3.4-23.11,9.59h-.01ZM117.96,49.7c4.51-4.52,10.5-7,16.86-7,13.15,0,23.85,10.7,23.87,23.85,0,6.36-2.5,12.35-7.01,16.86-4.5,4.51-10.49,7-16.86,7-13.15,0-23.85-10.69-23.86-23.85,0-6.36,2.48-12.35,7-16.86h0ZM164.52,120.61c4.52-4.52,10.51-7.01,16.88-7.01,13.17,0,23.89,10.71,23.89,23.88,0,6.37-2.48,12.36-7.01,16.88-4.52,4.52-10.51,7.01-16.88,7.01h0c-13.16,0-23.88-10.71-23.89-23.87,0-6.37,2.49-12.37,7.01-16.89h0ZM82.07,72.57c-.58-.88-.76-1.94-.54-2.96.23-1.03.83-1.91,1.72-2.48,1.78-1.15,4.32-.59,5.46,1.17l21.32,32.98h0l5.48,8.48.35.34c1.51.93,3.07,1.74,4.62,2.41,1.28.55,2.63,1.04,4.01,1.44,13.62,3.99,26.07-1.65,31.51-4.78,1.21,1.38,2.29,2.85,3.26,4.37-.32.29-.65.56-.95.86-6.18,6.18-9.57,14.39-9.57,23.11,0,.95.06,1.87.14,2.8h-26.41c.08-.93.14-1.88.14-2.83,0-12.38-6.94-23.18-17.12-28.72l-.47-.72-22.94-35.47h0ZM113.79,137.48c0,6.37-2.48,12.36-7.01,16.88-4.52,4.52-10.51,7.01-16.88,7.01h0c-13.16,0-23.88-10.71-23.88-23.87,0-6.37,2.48-12.37,7-16.89,4.52-4.52,10.51-7.01,16.88-7.01,13.17,0,23.89,10.71,23.89,23.88h0Z"/>
    <path class="cls-1" d="M200.55,170.94c-.79.6-19.41,14.4-37.04.04-1.65-1.35-4.05-1.31-5.66.09-.71.62-17.41,15.45-17.82,44.54-.02,1.18.44,2.31,1.26,3.15.83.84,1.96,1.31,3.14,1.31h73.96c2.37-.01,4.32-1.89,4.39-4.27.05-1.17.74-28.73-16.6-44.61-1.57-1.44-3.95-1.54-5.63-.25h0ZM213.85,211.26h-64.82c1.33-16.29,8.4-26.6,12.2-31.04,15.54,10.28,32.2,5.42,41.4-.1,8.68,9.87,10.74,24.11,11.22,31.14Z"/>
    <path class="cls-1" d="M108.31,171.6c-.79.6-19.41,14.4-37.04.04-1.65-1.35-4.05-1.31-5.66.09-.71.62-17.41,15.45-17.82,44.54-.02,1.18.44,2.31,1.26,3.15.83.84,1.96,1.31,3.14,1.31h73.96c2.37-.01,4.32-1.89,4.39-4.27.05-1.17.74-28.73-16.6-44.61-1.57-1.44-3.95-1.54-5.63-.25h0ZM121.62,211.92H56.8c1.33-16.29,8.4-26.6,12.2-31.04,15.54,10.28,32.2,5.42,41.4-.1,8.68,9.87,10.74,24.11,11.22,31.14Z"/>
  </g>
</svg>