<?xml version="1.0" encoding="UTF-8"?>
<svg id="Objects" xmlns="http://www.w3.org/2000/svg" version="1.1" viewBox="0 0 1052.4 1039.6">
  <!-- Generator: Adobe Illustrator 29.3.0, SVG Export Plug-In . SVG Version: 2.1.0 Build 146)  -->
  <defs>
    <style>
      .st0 {
        fill: #fff;
      }
    </style>
  </defs>
  <path class="st0" d="M533,754.6H146.2c-7.9,0-14.3,6.4-14.3,14.3s6.4,14.3,14.3,14.3h386.8c7.9,0,14.3-6.4,14.3-14.3s-6.4-14.3-14.3-14.3Z"/>
  <path class="st0" d="M146.1,654.3h755.5c7.9,0,14.3-6.4,14.3-14.3s-6.4-14.3-14.3-14.3H146.1c-7.9,0-14.3,6.4-14.3,14.3s6.4,14.3,14.3,14.3Z"/>
  <g>
    <path class="st0" d="M917.6,872.8H142.7c-6,0-10.9-4.9-10.9-10.9V109.7c.1-6,5-10.9,11-10.9h261.5c3.1,0,6,1.3,8,3.6l102.5,113.1h402.8c6,0,10.9,4.9,10.9,10.9v635.5c0,6-4.9,10.9-10.9,10.9ZM153.5,851.1h753.2V237.3h-396.8c-3.1,0-6-1.3-8-3.6l-102.5-113.1h-245.8v730.5Z"/>
    <path class="st0" d="M911.9,386H148.4c-6,0-10.9-4.9-10.9-10.9s4.9-10.9,10.9-10.9h763.5c6,0,10.9,4.9,10.9,10.9s-4.9,10.9-10.9,10.9Z"/>
  </g>
</svg>