<?xml version="1.0" encoding="UTF-8"?>
<svg id="Objects" xmlns="http://www.w3.org/2000/svg" viewBox="0 0 1128.2 1099.96">
  <defs>
    <style>
      .cls-1 {
        fill: #fff;
      }
    </style>
  </defs>
  <path class="cls-1" d="M253.9,1099.96c-2.1,0-4.2-.43-6.18-1.29-5.57-2.46-9.16-7.96-9.16-14.05v-207.04H15.34c-8.48,0-15.34-6.87-15.34-15.34V120.22c0-8.47,6.86-15.34,15.34-15.34h962.52c8.48,0,15.34,6.87,15.34,15.34v742.02c0,8.47-6.86,15.34-15.34,15.34h-475.3l-238.29,218.36c-2.89,2.64-6.61,4.03-10.37,4.03ZM30.68,846.9h223.22c8.48,0,15.34,6.87,15.34,15.34v187.52l216.99-198.83c2.83-2.59,6.53-4.03,10.37-4.03h465.92V135.56H30.68v711.34Z"/>
  <path class="cls-1" d="M1112.86,798.38h-135c-8.48,0-15.34-6.87-15.34-15.34s6.86-15.34,15.34-15.34h119.67V30.67H165.7v89.55c0,8.47-6.86,15.34-15.34,15.34s-15.34-6.87-15.34-15.34V15.34c0-8.48,6.86-15.34,15.34-15.34h962.5c8.48,0,15.34,6.86,15.34,15.34v767.7c0,8.47-6.86,15.34-15.34,15.34Z"/>
  <path class="cls-1" d="M874.31,1020.76c-3.76,0-7.48-1.39-10.37-4.03l-156.28-143.2c-6.25-5.72-6.66-15.43-.94-21.67,5.72-6.24,15.42-6.67,21.68-.95l130.56,119.65v-108.31c0-8.48,6.86-15.34,15.34-15.34s15.34,6.86,15.34,15.34v143.17c0,6.08-3.59,11.59-9.16,14.05-1.98.87-4.08,1.29-6.18,1.29Z"/>
  <path class="cls-1" d="M835.96,343.35H150.36c-8.48,0-15.34-6.87-15.34-15.34s6.86-15.34,15.34-15.34h685.6c8.48,0,15.34,6.86,15.34,15.34s-6.86,15.34-15.34,15.34Z"/>
  <path class="cls-1" d="M835.96,480.55H150.36c-8.48,0-15.34-6.87-15.34-15.34s6.86-15.34,15.34-15.34h685.6c8.48,0,15.34,6.87,15.34,15.34s-6.86,15.34-15.34,15.34Z"/>
  <path class="cls-1" d="M424.33,617.77H150.36c-8.48,0-15.34-6.87-15.34-15.34s6.86-15.34,15.34-15.34h273.97c8.48,0,15.34,6.87,15.34,15.34s-6.86,15.34-15.34,15.34Z"/>
</svg>