<?xml version="1.0" encoding="UTF-8"?>
<svg id="_Слой_1" xmlns="http://www.w3.org/2000/svg" version="1.1" viewBox="0 0 175 186.9">
  <!-- Generator: Adobe Illustrator 29.3.0, SVG Export Plug-In . SVG Version: 2.1.0 Build 146)  -->
  <defs>
    <style>
      .st0 {
        fill: #f1f5f6;
      }

      .st1 {
        fill: #3fc0ef;
      }
    </style>
  </defs>
  <circle class="st0" cx="87.5" cy="93.4" r="87"/>
  <g>
    <path class="st1" d="M139.7,147.6c0-.6.4-13.2-7.7-20.5-.8-.7-2-.8-2.8-.1-.4.3-8.8,6.5-16.7,0-.8-.7-2-.6-2.8,0-.1,0-1.1,1-2.4,2.7-1.2-1.9-2.7-3.7-4.4-5.3-.8-.7-2-.8-2.8-.1-.6.4-13.1,9.8-25.1,0-.8-.7-2-.6-2.8,0-.4.4-11.2,9.9-11.4,28.6,0,.6.2,1.1.6,1.5.4.4,1,.6,1.5.6h48.3c1.2,0,2.2-1,2.2-2.1s0-1.4,0-3.4h24.1c1.2,0,2.2-1,2.2-2.1h0ZM65.3,150.9c.8-11.7,6.2-19.1,8.6-21.8,11.4,7.9,23,2.5,27.2,0,6.5,6.9,7.7,17.5,7.9,21.9h-43.8,0ZM113,145.4c-.5-3.3-1.5-7.3-3.2-11.2.6-1.1,1.3-1.9,1.8-2.5,7.1,4.6,14.6,2.5,18.8,0,3.8,4.4,4.7,10.6,5,13.8h-22.3Z"/>
    <path class="st1" d="M57.5,63c0,3.9,3.2,7.1,7.1,7.1h19l-.6,6.8c0,.8.4,1.5,1.2,1.9.2,0,.5.1.7.1.6,0,1.1-.2,1.4-.6l7.2-8.2h23.4c3.9,0,7.1-3.2,7.1-7.1v-28.2c0-3.9-3.2-7.1-7.1-7.1h-52.4c-3.9,0-7.1,3.2-7.1,7.1v28.2h0ZM61.3,34.8c0-1.8,1.5-3.3,3.3-3.3h52.4c1.8,0,3.3,1.5,3.3,3.3v28.2c0,1.8-1.5,3.3-3.3,3.3h-24.3c-.6,0-1.1.2-1.4.6l-3.9,4.5.3-3.1c0-.6-.1-1.1-.5-1.4-.4-.4-.8-.6-1.4-.6h-21.1c-1.8,0-3.3-1.5-3.3-3.3v-28.2h0Z"/>
    <path class="st1" d="M120.6,127h0c4,0,7.8-1.5,10.7-4.4,2.9-2.9,4.4-6.7,4.4-10.7,0-8.4-6.8-15.1-15.1-15.1s-7.8,1.5-10.7,4.4c-.8.8-1.6,1.8-2.2,2.8,0-.7,0-1.3,0-2,0-11.4-9.3-20.6-20.6-20.6s-10.7,2.2-14.6,6c-3.9,3.9-6,9.1-6,14.6,0,11.4,9.3,20.6,20.7,20.6h0c5.5,0,10.7-2.2,14.6-6,3.9-3.9,2.8-3.3,3.8-5.2v.5c0,8.4,6.8,15.1,15.1,15.1h0ZM113.1,104.3c2-2,4.7-3.2,7.6-3.2,5.9,0,10.7,4.8,10.7,10.7s-1.1,5.5-3.2,7.6-4.7,3.2-7.6,3.2h0c-5.9,0-10.7-4.8-10.7-10.7s1.1-5.5,3.2-7.6h0ZM98.7,113.5c-3.1,3.1-7.2,4.8-11.5,4.8h0c-9,0-16.3-7.3-16.3-16.3s1.7-8.4,4.8-11.5,7.2-4.8,11.5-4.8c9,0,16.3,7.3,16.3,16.3s-1.7,8.4-4.8,11.5h0Z"/>
    <path class="st1" d="M53,127c8.4,0,15.1-6.7,15.1-15.1s0-.3,0-.5c1,1.9,2.2,3.7,3.8,5.2,3.9,3.9,9.1,6,14.6,6h0c11.4,0,20.6-9.3,20.6-20.6s-2.2-10.7-6-14.6c-3.9-3.9-9.1-6-14.6-6-11.4,0-20.6,9.3-20.6,20.6s0,1.4.1,2c-.6-1-1.3-2-2.2-2.8-2.9-2.9-6.7-4.4-10.7-4.4-8.4,0-15.1,6.7-15.1,15.1s1.5,7.8,4.4,10.7,6.7,4.4,10.7,4.4h0ZM60.6,104.3c2,2,3.2,4.7,3.2,7.6,0,5.9-4.8,10.7-10.7,10.7h0c-2.9,0-5.5-1.1-7.6-3.2s-3.2-4.7-3.2-7.6c0-5.9,4.8-10.7,10.7-10.7s5.5,1.1,7.6,3.2h0ZM75,113.5c-3.1-3.1-4.8-7.2-4.8-11.5,0-9,7.3-16.3,16.3-16.3s8.4,1.7,11.5,4.8c3.1,3.1,4.8,7.2,4.8,11.5,0,9-7.3,16.3-16.3,16.3h0c-4.4,0-8.4-1.7-11.5-4.8h0Z"/>
    <path class="st1" d="M35.3,147.6c0,1.2,1,2.1,2.2,2.1h24.1c-.1,1.9,0,3.2,0,3.4,0,1.2,1,2.1,2.2,2.1h48.3c.6,0,1.1-.2,1.5-.6s.6-1,.6-1.5c-.3-18.7-11-28.2-11.4-28.6-.8-.7-2-.7-2.8,0-11.9,9.8-24.5.4-25.1,0-.8-.6-2-.6-2.8.1-1.8,1.6-3.2,3.4-4.4,5.3-1.3-1.7-2.3-2.6-2.4-2.7-.8-.7-2-.7-2.8,0-7.9,6.5-16.3.3-16.7,0-.8-.6-2-.6-2.8.1-8,7.3-7.7,20-7.7,20.5h0ZM109.7,150.9h-43.8c.2-4.5,1.5-15,7.9-21.9,4.2,2.5,15.9,8.1,27.2,0,2.5,2.8,7.8,10.1,8.6,21.8h0ZM62,145.4h-22.3c.2-3.2,1.2-9.4,5-13.8,4.3,2.5,11.8,4.6,18.8,0,.5.6,1.1,1.5,1.8,2.5-1.8,3.9-2.7,7.9-3.2,11.2h0Z"/>
  </g>
</svg>