<?xml version="1.0" encoding="UTF-8"?>
<svg id="Objects" xmlns="http://www.w3.org/2000/svg" viewBox="0 0 1052.36 1039.56">
  <defs>
    <style>
      .cls-1 {
        fill: #fff;
      }
    </style>
  </defs>
  <path class="cls-1" d="M14.34,0C6.43,0,0,6.43,0,14.34v1010.88c0,7.92,6.43,14.34,14.34,14.34h1023.68c7.92,0,14.34-6.42,14.34-14.34V14.34c0-7.91-6.42-14.34-14.34-14.34H14.34ZM1023.68,1010.88H28.68V28.68h995v982.2Z"/>
  <path class="cls-1" d="M154.15,267.09h747.13c7.92,0,14.34-6.42,14.34-14.34s-6.42-14.34-14.34-14.34H154.15c-7.92,0-14.34,6.42-14.34,14.34s6.42,14.34,14.34,14.34Z"/>
  <path class="cls-1" d="M898.27,396.14c7.91,0,14.34-6.42,14.34-14.34s-6.43-14.34-14.34-14.34H155.66c-7.92,0-14.34,6.43-14.34,14.34s6.42,14.34,14.34,14.34h742.61Z"/>
  <path class="cls-1" d="M155.9,525.21h743.56c7.92,0,14.34-6.42,14.34-14.34s-6.42-14.34-14.34-14.34H155.9c-7.92,0-14.34,6.42-14.34,14.34s6.42,14.34,14.34,14.34Z"/>
  <path class="cls-1" d="M532.98,754.64H146.17c-7.92,0-14.34,6.42-14.34,14.34s6.42,14.34,14.34,14.34h386.81c7.92,0,14.34-6.42,14.34-14.34s-6.42-14.34-14.34-14.34Z"/>
  <path class="cls-1" d="M146.08,654.27h755.52c7.92,0,14.34-6.42,14.34-14.34s-6.42-14.34-14.34-14.34H146.08c-7.92,0-14.34,6.42-14.34,14.34s6.42,14.34,14.34,14.34Z"/>
</svg>