<?xml version="1.0" encoding="UTF-8"?>
<svg id="_Слой_1" xmlns="http://www.w3.org/2000/svg" version="1.1" viewBox="0 0 175 186.9">
  <!-- Generator: Adobe Illustrator 29.3.0, SVG Export Plug-In . SVG Version: 2.1.0 Build 146)  -->
  <defs>
    <style>
      .st0 {
        fill: #fff;
      }
    </style>
  </defs>
  <path class="st0" d="M2.3,138c-2.9-.6-2.2-5.6-2.1-8,.5-9,7.7-30.1,15.7-34.8,3.5-2,5.6,1.5,8.5,2.9,7.6,3.9,15.2,3.7,23.1.7s7.8-7.4,13.7-1.2,5.8,9.5,6.4,10,2.1.4,3,.9c9.3,5.6,14,8.1,25.3,4.8,3.8-1.1,7.7-4.6,10.2-5.3s2.3.4,2.4.4c.3-.2,2.7-5.3,3.7-6.7s4.8-6.4,6.3-6.8c3.3-1,4.1,1.3,6.3,2.4,9.5,4.8,16.2,5.3,26.2,1,6.3-2.7,6.6-6.4,12.6,0,6.3,6.9,11,20.7,11.6,30s.7,9.8-2.1,9.8h-49.6c.3,3.1,2.3,12.8-1.6,13.5l-69.1-.2c-3.7-1.6-.9-10.1-1.2-13.4H2.3ZM53.1,132.1c1.2-4.7,3.1-9.1,5.5-13.3s4-5.2,4.1-6.1c.2-1.8-5.3-10.9-6.8-11s-8.2,3.8-10.6,4.3c-9.9,2.4-18.6,1.1-27.2-4.1-6.7,8.4-11.1,19.2-11.3,30h46.3ZM168.3,132.1c.2-6-1-12.4-3.1-18s-5.8-12.3-7.9-12.3c-11.9,6.9-25.9,7.6-37.8.3-.8.5-6.5,9.7-6.5,10.7s3.9,6.2,4.6,7.8c1.8,3.7,2.6,7.9,4.5,11.5h46ZM57.2,145.1h60c-.2-10.7-3.7-21.4-10.4-29.7-9.7,5.2-20.7,7.5-31.3,3.5-1.5-.6-6.3-3.6-7-3.2-6.8,8.3-10.6,18.8-11.3,29.5Z"/>
  <path class="st0" d="M64.9,59c12.7-13.7,32.8-13.4,45.1.6,3-18.5,22-29.1,39.4-21.9s23.4,30.5,10.5,45.4c-12.1,14-32.7,12.5-44.6-.9-5.2,31.9-50.4,32.1-56.5.6-24.1,27.2-66.6-4.9-46-35,14.4-21.2,47.4-13.6,52,11.2ZM59.1,64.1c0-12.4-10-22.4-22.4-22.4s-22.4,10-22.4,22.4,10,22.4,22.4,22.4,22.4-10,22.4-22.4ZM160.8,64.1c0-12.4-10-22.4-22.4-22.4s-22.4,10-22.4,22.4,10,22.4,22.4,22.4,22.4-10,22.4-22.4ZM109.6,77.7c0-12.4-10-22.4-22.4-22.4s-22.4,10-22.4,22.4,10,22.4,22.4,22.4,22.4-10,22.4-22.4Z"/>
</svg>