<?xml version="1.0" encoding="UTF-8"?>
<svg id="_Слой_1" data-name=" Слой 1" xmlns="http://www.w3.org/2000/svg" viewBox="0 0 148.84 181.81">
  <defs>
    <style>
      .cls-1 {
        fill: #fff;
      }
    </style>
  </defs>
  <path class="cls-1" d="M148.83,170.94c.02-.76.48-18.8-10.88-29.21-1.12-1.02-2.81-1.09-4.01-.18-.51.38-12.46,9.24-23.76.03-1.18-.96-2.88-.93-4.03.07-.16.14-1.61,1.45-3.44,3.89-1.74-2.69-3.83-5.25-6.32-7.54-1.12-1.02-2.81-1.09-4.01-.18-.75.58-18.64,13.88-35.66.02-1.19-.96-2.88-.93-4.03.07-.64.56-15.87,14.09-16.24,40.73-.01.84.31,1.64.9,2.24.59.6,1.39.93,2.22.93h68.82c1.69,0,3.07-1.35,3.13-3.03,0-.27.05-2.04-.13-4.78h34.32c1.69,0,3.07-1.35,3.13-3.03h0v-.03ZM42.81,175.54c1.1-16.69,8.75-27.16,12.24-31.12,16.25,11.33,32.84,3.47,38.81-.12,9.22,9.91,11.01,24.87,11.33,31.24h-62.38ZM110.69,167.71c-.73-4.72-2.1-10.42-4.63-16.02.91-1.48,1.8-2.69,2.52-3.55,10.05,6.51,20.77,3.48,26.82-.07,5.36,6.22,6.73,15.05,7.07,19.63h-31.78Z"/>
  <path class="cls-1" d="M31.73,50.27c0,5.55,4.52,10.07,10.08,10.07h27.08l-.76,9.71c-.09,1.16.58,2.25,1.65,2.71.34.14.69.21,1.05.21.77,0,1.51-.33,2.04-.93l10.17-11.7h33.41c5.55,0,10.08-4.52,10.08-10.07V10.08c0-5.56-4.53-10.08-10.08-10.08H41.82c-5.55,0-10.08,4.52-10.08,10.08v40.19h0ZM37.13,10.09c0-2.57,2.09-4.67,4.67-4.67h74.63c2.57,0,4.67,2.1,4.67,4.67v40.19c0,2.57-2.1,4.67-4.67,4.67h-34.65c-.78,0-1.53.33-2.04.93l-5.6,6.44.36-4.45c.05-.75-.2-1.49-.71-2.04-.51-.55-1.23-.86-1.98-.86h-30c-2.57,0-4.67-2.1-4.67-4.67V10.11h0v-.02Z"/>
  <path class="cls-1" d="M121.65,141.52h0c5.74,0,11.14-2.24,15.21-6.31,4.07-4.07,6.31-9.48,6.31-15.22,0-11.86-9.67-21.52-21.52-21.52-5.74,0-11.15,2.24-15.21,6.31-1.23,1.23-2.27,2.6-3.16,4.04.09-.96.15-1.94.15-2.93,0-16.23-13.22-29.44-29.45-29.44-7.86,0-15.25,3.07-20.81,8.64-5.57,5.57-8.63,12.96-8.63,20.82,0,16.23,13.22,29.43,29.45,29.43h0c7.86,0,15.25-3.07,20.81-8.63,2.2-2.2,3.99-4.68,5.37-7.37,0,.22-.03.44-.03.66,0,11.86,9.66,21.51,21.52,21.51h0ZM110.86,109.21c2.89-2.89,6.72-4.48,10.79-4.48,8.41,0,15.27,6.85,15.27,15.27,0,4.07-1.59,7.9-4.48,10.79s-6.72,4.47-10.79,4.47h0c-8.41,0-15.27-6.85-15.27-15.25,0-4.07,1.59-7.9,4.47-10.79h0ZM90.37,122.3c-4.38,4.39-10.2,6.8-16.39,6.8h0c-12.78,0-23.19-10.4-23.19-23.18,0-6.18,2.41-12.01,6.79-16.4,4.39-4.39,10.21-6.81,16.39-6.81,12.78,0,23.19,10.4,23.2,23.18,0,6.18-2.41,12-6.8,16.4h0Z"/>
  <path class="cls-1" d="M25.37,141.51c11.86,0,21.52-9.65,21.52-21.51,0-.22-.03-.44-.03-.66,1.39,2.69,3.18,5.17,5.37,7.37,5.57,5.57,12.95,8.63,20.81,8.63h0c16.23,0,29.44-13.2,29.45-29.43,0-7.86-3.07-15.25-8.63-20.82-5.57-5.57-12.96-8.64-20.81-8.64-16.23,0-29.44,13.21-29.45,29.44,0,.98.05,1.96.15,2.93-.88-1.44-1.92-2.81-3.16-4.04-4.07-4.07-9.47-6.31-15.21-6.31-11.86,0-21.52,9.65-21.52,21.52,0,5.74,2.24,11.15,6.31,15.22s9.47,6.31,15.21,6.31h-.01ZM36.17,109.22c2.89,2.89,4.47,6.72,4.47,10.79,0,8.41-6.85,15.25-15.27,15.25h0c-4.07,0-7.9-1.59-10.79-4.47-2.89-2.89-4.48-6.73-4.48-10.79,0-8.42,6.86-15.27,15.27-15.27,4.07,0,7.9,1.59,10.79,4.48h0ZM56.66,122.3c-4.39-4.39-6.8-10.22-6.8-16.4,0-12.78,10.42-23.18,23.2-23.18,6.18,0,12,2.42,16.39,6.81,4.38,4.39,6.79,10.22,6.79,16.4,0,12.77-10.41,23.18-23.19,23.18h0c-6.19,0-12-2.41-16.39-6.8h0Z"/>
  <path class="cls-1" d="M0,170.95c.06,1.69,1.44,3.03,3.13,3.03h34.32c-.18,2.74-.14,4.52-.13,4.78.05,1.69,1.44,3.02,3.13,3.02h68.82c.84,0,1.63-.32,2.22-.92.59-.6.92-1.41.9-2.24-.38-26.63-15.6-40.17-16.24-40.73-1.15-1-2.85-1.02-4.03-.07-17.02,13.86-34.91.56-35.66-.02-1.2-.91-2.89-.84-4.01.18-2.49,2.29-4.58,4.85-6.32,7.54-1.83-2.43-3.28-3.74-3.44-3.89-1.15-1-2.85-1.03-4.03-.07-11.3,9.2-23.25.35-23.76-.03-1.21-.91-2.89-.84-4.01.18C-.47,152.12-.01,170.17,0,170.92H0v.03ZM106.02,175.54h-62.37c.33-6.38,2.11-21.34,11.33-31.25,5.97,3.59,22.56,11.46,38.81.12,3.49,3.97,11.14,14.43,12.24,31.12h-.01ZM38.15,167.71H6.37c.34-4.58,1.71-13.42,7.07-19.63,6.05,3.55,16.77,6.58,26.82.07.72.86,1.61,2.07,2.52,3.55-2.53,5.59-3.9,11.29-4.63,16.02h0Z"/>
</svg>