<?xml version="1.0" encoding="UTF-8"?>
<svg id="_Слой_1" data-name=" Слой 1" xmlns="http://www.w3.org/2000/svg" viewBox="0 0 185.67 198.53">
  <defs>
    <style>
      .cls-1 {
        fill: #fff;
      }
    </style>
  </defs>
  <path class="cls-1" d="M55.13,172.57c-4.87-2.11-8.78-4.31-11.2-5.79-1.31-.8-2.32-1.47-3-1.93-.33-.23-.59-.41-.82-.58l-.14-.1c-2.13-1.6-5.09-1.22-6.75.86-1.63,2.05-1.32,5.08.7,6.77,18.18,15.1,34.79,23.6,50.77,26,3.27.49,6.52.73,9.77.73,4.61,0,9.23-.49,13.95-1.48,6.28-1.31,12.68-3.49,19.48-6.66l3.84,5.55c1.02,1.49,2.77,2.28,4.56,2.07,1.79-.2,3.31-1.38,3.97-3.05l10.56-26.84c.56-1.4.42-3.01-.35-4.29-.78-1.3-2.13-2.17-3.63-2.34l-28.8-3.25c-1.86-.22-3.63.63-4.64,2.19-1,1.54-1.03,3.56-.1,5.14l3,5.02c-7.78,4.68-16.16,7.48-24.94,8.35-14.47,1.43-27.71-2.68-36.26-6.38h.03ZM122.46,174.31c1.43-.95,1.85-2.85.98-4.32l-3-5.01,23.68,2.67-8.76,22.25-3.74-5.41c-.91-1.31-2.63-1.76-4.05-1.05-7.26,3.57-13.95,5.98-20.46,7.33-7.3,1.53-14.32,1.75-21.45.68-9.51-1.43-19.35-5.26-29.76-11.63,9.18,3.56,22.06,6.91,36.11,5.52,10.81-1.07,21.05-4.78,30.44-11.03h.01Z"/>
  <path class="cls-1" d="M139.16,31.76c1.31.8,2.32,1.47,2.99,1.93.33.23.58.4.79.56l.17.12c2.13,1.6,5.09,1.22,6.75-.86,1.65-2.09,1.35-5.06-.7-6.77C130.98,11.63,114.37,3.13,98.38.74c-7.89-1.19-15.66-.94-23.71.75-6.28,1.31-12.68,3.49-19.48,6.66l-3.84-5.55c-1.02-1.48-2.78-2.28-4.56-2.06-1.79.2-3.31,1.37-3.97,3.05l-10.56,26.84c-.56,1.4-.42,3.01.35,4.29.78,1.29,2.14,2.17,3.63,2.33l28.81,3.26c.18.02.37.03.56.03,1.65,0,3.18-.82,4.08-2.23,1-1.54,1.03-3.56.09-5.14l-3-5.02c7.79-4.68,16.16-7.48,24.94-8.35,14.47-1.43,27.71,2.69,36.26,6.39,4.88,2.11,8.79,4.31,11.2,5.79l-.02-.02ZM91.07,13.2c-10.81,1.07-21.06,4.78-30.45,11.03-1.42.95-1.85,2.85-.97,4.32l3,5.02-23.68-2.67,8.76-22.25,3.74,5.4c.91,1.31,2.63,1.76,4.06,1.05,7.26-3.58,13.95-5.97,20.46-7.33,7.31-1.53,14.32-1.75,21.45-.68,9.51,1.43,19.35,5.26,29.76,11.63-9.18-3.57-22.07-6.91-36.11-5.52h-.02Z"/>
  <path class="cls-1" d="M33.79,107.41h0c7.12,0,13.81-2.78,18.85-7.82,5.05-5.05,7.82-11.75,7.82-18.86,0-14.71-11.98-26.68-26.68-26.68-7.12,0-13.82,2.78-18.86,7.82-5.04,5.05-7.82,11.75-7.82,18.87,0,14.71,11.98,26.67,26.68,26.67h.01ZM19.92,66.87c3.71-3.71,8.63-5.76,13.86-5.76,10.81,0,19.62,8.8,19.62,19.62,0,5.23-2.04,10.16-5.76,13.87-3.71,3.71-8.63,5.75-13.86,5.75h0c-10.81,0-19.62-8.79-19.62-19.61,0-5.23,2.04-10.16,5.75-13.87h.01Z"/>
  <path class="cls-1" d="M67.59,144.83c.03-.95.6-23.49-13.56-36.46-1.27-1.16-3.18-1.24-4.54-.2-.16.12-15.83,11.89-30.39.03-1.33-1.08-3.25-1.05-4.54.07C13.98,108.77.34,120.9,0,144.68c0,.94.35,1.85,1.02,2.52s1.57,1.05,2.52,1.05h60.54c1.9,0,3.46-1.52,3.53-3.43h-.02ZM7.21,141.21c1.08-13.47,6.94-21.96,10.05-25.58,12.74,8.46,26.4,4.45,33.92-.07,7.18,8.13,8.86,19.89,9.25,25.64H7.21Z"/>
  <path class="cls-1" d="M133,61.87c-5.04,5.05-7.82,11.75-7.82,18.87,0,14.71,11.98,26.67,26.68,26.67h0c7.12,0,13.81-2.78,18.85-7.82s7.83-11.75,7.82-18.86c0-14.71-11.98-26.68-26.68-26.68-7.13,0-13.82,2.78-18.87,7.82h.02ZM171.49,80.73c0,5.23-2.04,10.16-5.76,13.87-3.71,3.71-8.63,5.75-13.86,5.75h0c-10.82,0-19.62-8.79-19.62-19.61,0-5.23,2.04-10.16,5.75-13.87s8.64-5.76,13.87-5.76c10.81,0,19.62,8.8,19.62,19.62h0Z"/>
  <path class="cls-1" d="M172.09,108.38c-1.26-1.16-3.18-1.24-4.54-.2-.15.12-15.83,11.89-30.39.03-1.33-1.08-3.25-1.05-4.54.07-.58.5-14.22,12.63-14.56,36.41,0,.94.35,1.85,1.02,2.52s1.57,1.05,2.51,1.05h60.54c1.9,0,3.47-1.52,3.53-3.43.03-.95.61-23.49-13.56-36.46h-.01ZM125.28,141.21c1.08-13.47,6.94-21.96,10.05-25.58,12.74,8.46,26.4,4.45,33.92-.07,7.18,8.13,8.86,19.89,9.24,25.64h-53.21Z"/>
</svg>