<?xml version="1.0" encoding="UTF-8"?>
<svg id="_Слой_1" xmlns="http://www.w3.org/2000/svg" version="1.1" viewBox="0 0 268.6 268.6">
  <!-- Generator: Adobe Illustrator 29.3.0, SVG Export Plug-In . SVG Version: 2.1.0 Build 146)  -->
  <defs>
    <style>
      .st0 {
        fill: #fff;
      }
    </style>
  </defs>
  <path class="st0" d="M30.3,115.8c-8.9,8.9-13.8,20.7-13.8,33.2,0,25.9,21.1,47,47,47h0c12.5,0,24.3-4.9,33.2-13.8,4.7-4.8,8.3-10.3,10.6-16.4h43.8c6.8,17.6,23.8,30.2,43.8,30.2h0c12.5,0,24.3-4.9,33.2-13.8s13.8-20.7,13.8-33.2c0-25.9-21.1-47-47-47s-14.9,1.8-21.4,5.2c-2.7-4.2-6-8.2-9.9-11.7-2.3-2.1-5.7-2.2-8.2-.4-.3.2-26.1,19.5-50.8,1.8l-13-20.1c8.6,10.5,21.7,17.2,36.4,17.2h0c12.5,0,24.3-4.9,33.2-13.8,8.9-8.9,13.8-20.7,13.8-33.2,0-25.9-21.1-47-47-47s-24.3,4.9-33.2,13.8c-8.9,8.9-13.8,20.7-13.8,33.2s1.9,14.8,5.1,21.1l-15.7-24.2c-4.8-7.4-14.7-9.5-22.1-4.7s-9.5,14.7-4.8,22.1l26.7,41.2c-2.2-.3-4.5-.5-6.7-.5-12.5,0-24.3,4.9-33.2,13.8h0,0ZM103.8,22.8c6.5-6.5,15.1-10.1,24.2-10.1,18.9,0,34.3,15.4,34.3,34.3,0,9.1-3.6,17.7-10.1,24.2-6.5,6.5-15.1,10.1-24.2,10.1-18.9,0-34.3-15.4-34.3-34.3,0-9.1,3.6-17.7,10.1-24.2h0ZM170.7,124.7c6.5-6.5,15.1-10.1,24.3-10.1,18.9,0,34.3,15.4,34.3,34.3s-3.6,17.8-10.1,24.3c-6.5,6.5-15.1,10.1-24.3,10.1h0c-18.9,0-34.3-15.4-34.3-34.3,0-9.2,3.6-17.8,10.1-24.3h0ZM52.2,55.6c-.8-1.3-1.1-2.8-.8-4.3.3-1.5,1.2-2.7,2.5-3.6,2.6-1.7,6.2-.8,7.8,1.7l30.6,47.4h0l7.9,12.2.5.5c2.2,1.3,4.4,2.5,6.6,3.5,1.8.8,3.8,1.5,5.8,2.1,19.6,5.7,37.5-2.4,45.3-6.9,1.7,2,3.3,4.1,4.7,6.3-.5.4-.9.8-1.4,1.2-8.9,8.9-13.8,20.7-13.8,33.2s0,2.7.2,4h-38c.1-1.3.2-2.7.2-4.1,0-17.8-10-33.3-24.6-41.3l-.7-1-33-51h0ZM97.8,148.9c0,9.2-3.6,17.8-10.1,24.3-6.5,6.5-15.1,10.1-24.3,10.1h0c-18.9,0-34.3-15.4-34.3-34.3s3.6-17.8,10.1-24.3c6.5-6.5,15.1-10.1,24.3-10.1,18.9,0,34.3,15.4,34.3,34.3h0Z"/>
  <path class="st0" d="M222.5,197c-1.1.9-27.9,20.7-53.2,0-2.4-1.9-5.8-1.9-8.1.1-1,.9-25,22.2-25.6,64,0,1.7.6,3.3,1.8,4.5,1.2,1.2,2.8,1.9,4.5,1.9h106.3c3.4,0,6.2-2.7,6.3-6.1,0-1.7,1.1-41.3-23.9-64.1-2.3-2.1-5.7-2.2-8.1-.4h0ZM241.6,255h-93.2c1.9-23.4,12.1-38.2,17.5-44.6,22.3,14.8,46.3,7.8,59.5-.1,12.5,14.2,15.4,34.7,16.1,44.8Z"/>
  <path class="st0" d="M90,198c-1.1.9-27.9,20.7-53.2,0-2.4-1.9-5.8-1.9-8.1.1-1,.9-25,22.2-25.6,64,0,1.7.6,3.3,1.8,4.5,1.2,1.2,2.8,1.9,4.5,1.9h106.3c3.4,0,6.2-2.7,6.3-6.1,0-1.7,1.1-41.3-23.9-64.1-2.3-2.1-5.7-2.2-8.1-.4h0ZM109.1,255.9H15.9c1.9-23.4,12.1-38.2,17.5-44.6,22.3,14.8,46.3,7.8,59.5-.1,12.5,14.2,15.4,34.7,16.1,44.8Z"/>
</svg>