<?xml version="1.0" encoding="UTF-8"?>
<svg id="_Слой_1" xmlns="http://www.w3.org/2000/svg" version="1.1" viewBox="0 0 268.6 268.6">
  <!-- Generator: Adobe Illustrator 29.3.0, SVG Export Plug-In . SVG Version: 2.1.0 Build 146)  -->
  <defs>
    <style>
      .st0 {
        fill: #fff;
      }
    </style>
  </defs>
  <path class="st0" d="M208.7,214.3c0-.8.5-18.8-10.9-29.2-1.1-1-2.8-1.1-4-.2-.5.4-12.5,9.2-23.8,0-1.2-1-2.9-.9-4,0-.2.1-1.6,1.4-3.4,3.9-1.7-2.7-3.8-5.2-6.3-7.5-1.1-1-2.8-1.1-4-.2-.8.6-18.6,13.9-35.7,0-1.2-1-2.9-.9-4,0-.6.6-15.9,14.1-16.2,40.7,0,.8.3,1.6.9,2.2.6.6,1.4.9,2.2.9h68.8c1.7,0,3.1-1.4,3.1-3,0-.3,0-2-.1-4.8h34.3c1.7,0,3.1-1.4,3.1-3h0ZM102.7,218.9c1.1-16.7,8.8-27.2,12.2-31.1,16.2,11.3,32.8,3.5,38.8-.1,9.2,9.9,11,24.9,11.3,31.2h-62.4ZM170.6,211.1c-.7-4.7-2.1-10.4-4.6-16,.9-1.5,1.8-2.7,2.5-3.6,10.1,6.5,20.8,3.5,26.8,0,5.4,6.2,6.7,15.1,7.1,19.6h-31.8Z"/>
  <path class="st0" d="M91.6,93.7c0,5.6,4.5,10.1,10.1,10.1h27.1l-.8,9.7c0,1.2.6,2.2,1.7,2.7.3.1.7.2,1,.2.8,0,1.5-.3,2-.9l10.2-11.7h33.4c5.6,0,10.1-4.5,10.1-10.1v-40.2c0-5.6-4.5-10.1-10.1-10.1h-74.6c-5.6,0-10.1,4.5-10.1,10.1v40.2h0ZM97,53.5c0-2.6,2.1-4.7,4.7-4.7h74.6c2.6,0,4.7,2.1,4.7,4.7v40.2c0,2.6-2.1,4.7-4.7,4.7h-34.6c-.8,0-1.5.3-2,.9l-5.6,6.4.4-4.4c0-.8-.2-1.5-.7-2-.5-.6-1.2-.9-2-.9h-30c-2.6,0-4.7-2.1-4.7-4.7v-40.2h0Z"/>
  <path class="st0" d="M181.5,184.9h0c5.7,0,11.1-2.2,15.2-6.3,4.1-4.1,6.3-9.5,6.3-15.2,0-11.9-9.7-21.5-21.5-21.5s-11.1,2.2-15.2,6.3c-1.2,1.2-2.3,2.6-3.2,4,0-1,.1-1.9.1-2.9,0-16.2-13.2-29.4-29.4-29.4s-15.2,3.1-20.8,8.6c-5.6,5.6-8.6,13-8.6,20.8,0,16.2,13.2,29.4,29.5,29.4h0c7.9,0,15.2-3.1,20.8-8.6s4-4.7,5.4-7.4c0,.2,0,.4,0,.7,0,11.9,9.7,21.5,21.5,21.5h0ZM170.7,152.6c2.9-2.9,6.7-4.5,10.8-4.5,8.4,0,15.3,6.9,15.3,15.3s-1.6,7.9-4.5,10.8-6.7,4.5-10.8,4.5h0c-8.4,0-15.3-6.9-15.3-15.2s1.6-7.9,4.5-10.8h0ZM150.2,165.7c-4.4,4.4-10.2,6.8-16.4,6.8h0c-12.8,0-23.2-10.4-23.2-23.2s2.4-12,6.8-16.4c4.4-4.4,10.2-6.8,16.4-6.8,12.8,0,23.2,10.4,23.2,23.2,0,6.2-2.4,12-6.8,16.4h0Z"/>
  <path class="st0" d="M85.2,184.9c11.9,0,21.5-9.6,21.5-21.5s0-.4,0-.7c1.4,2.7,3.2,5.2,5.4,7.4,5.6,5.6,12.9,8.6,20.8,8.6h0c16.2,0,29.4-13.2,29.4-29.4,0-7.9-3.1-15.3-8.6-20.8-5.6-5.6-13-8.6-20.8-8.6-16.2,0-29.4,13.2-29.4,29.4,0,1,0,2,.2,2.9-.9-1.4-1.9-2.8-3.2-4-4.1-4.1-9.5-6.3-15.2-6.3-11.9,0-21.5,9.6-21.5,21.5s2.2,11.1,6.3,15.2,9.5,6.3,15.2,6.3h0ZM96,152.6c2.9,2.9,4.5,6.7,4.5,10.8,0,8.4-6.8,15.2-15.3,15.2h0c-4.1,0-7.9-1.6-10.8-4.5-2.9-2.9-4.5-6.7-4.5-10.8,0-8.4,6.9-15.3,15.3-15.3s7.9,1.6,10.8,4.5h0ZM116.5,165.7c-4.4-4.4-6.8-10.2-6.8-16.4,0-12.8,10.4-23.2,23.2-23.2s12,2.4,16.4,6.8c4.4,4.4,6.8,10.2,6.8,16.4,0,12.8-10.4,23.2-23.2,23.2h0c-6.2,0-12-2.4-16.4-6.8h0Z"/>
  <path class="st0" d="M59.9,214.3c0,1.7,1.4,3,3.1,3h34.3c-.2,2.7-.1,4.5-.1,4.8,0,1.7,1.4,3,3.1,3h68.8c.8,0,1.6-.3,2.2-.9.6-.6.9-1.4.9-2.2-.4-26.6-15.6-40.2-16.2-40.7-1.1-1-2.9-1-4,0-17,13.9-34.9.6-35.7,0-1.2-.9-2.9-.8-4,.2-2.5,2.3-4.6,4.9-6.3,7.5-1.8-2.4-3.3-3.7-3.4-3.9-1.2-1-2.8-1-4,0-11.3,9.2-23.2.4-23.8,0-1.2-.9-2.9-.8-4,.2-11.4,10.4-10.9,28.5-10.9,29.2h0ZM165.9,218.9h-62.4c.3-6.4,2.1-21.3,11.3-31.2,6,3.6,22.6,11.5,38.8.1,3.5,4,11.1,14.4,12.2,31.1h0ZM98,211.1h-31.8c.3-4.6,1.7-13.4,7.1-19.6,6.1,3.6,16.8,6.6,26.8,0,.7.9,1.6,2.1,2.5,3.6-2.5,5.6-3.9,11.3-4.6,16h0Z"/>
</svg>