<?xml version="1.0" encoding="UTF-8"?>
<svg id="_Слой_1" xmlns="http://www.w3.org/2000/svg" version="1.1" viewBox="0 0 175 186.9">
  <!-- Generator: Adobe Illustrator 29.3.0, SVG Export Plug-In . SVG Version: 2.1.0 Build 146)  -->
  <defs>
    <style>
      .st0 {
        fill: #f1f5f6;
      }

      .st1 {
        fill: #3fc0ef;
      }
    </style>
  </defs>
  <circle class="st0" cx="87.5" cy="93.4" r="87"/>
  <path class="st1" d="M63.1,141c-3.4-1.4-6-2.9-7.7-4-.9-.5-1.6-1-2.1-1.3-.2-.1-.4-.3-.5-.4h0c-1.4-1.2-3.5-.9-4.7.5-1.1,1.4-.9,3.5.5,4.7,12.5,10.4,23.9,16.2,34.8,17.8,2.3.3,4.5.5,6.7.5s6.3-.3,9.5-1c4.3-.9,8.7-2.4,13.4-4.6l2.6,3.8c.7,1,1.9,1.6,3.2,1.4s2.3-1,2.7-2.1l7.3-18.4c.4-1,.3-2.1-.3-2.9-.5-.9-1.4-1.5-2.5-1.6l-19.8-2.2c-1.3-.1-2.5.4-3.2,1.5-.7,1-.7,2.5,0,3.5l2.1,3.4c-5.3,3.2-11.1,5.1-17.1,5.8-9.9,1-19-1.9-24.9-4.4h0ZM109.2,142.2c1-.6,1.3-2,.7-2.9l-2.1-3.4,16.3,1.9-6,15.2-2.5-3.7c-.6-.9-1.8-1.2-2.8-.8-5,2.5-9.5,4.1-14.1,5-5,1-9.8,1.2-14.7.5-6.5-1-13.2-3.6-20.4-8,6.3,2.5,15.2,4.7,24.8,3.8,7.4-.8,14.5-3.3,20.9-7.5h0Z"/>
  <path class="st1" d="M120.7,44.5c.9.5,1.6,1,2.1,1.3.2.1.4.3.5.4h.1c1.4,1.2,3.5.9,4.7-.5,1.1-1.4,1-3.5-.5-4.7-12.5-10.4-23.9-16.2-34.8-17.8-5.4-.8-10.8-.6-16.3.5-4.3.9-8.7,2.4-13.4,4.6l-2.6-3.8c-.7-1-1.9-1.6-3.2-1.4-1.2.1-2.3,1-2.7,2.1l-7.3,18.4c-.4,1-.3,2.1.2,2.9.5.9,1.4,1.5,2.5,1.6l19.8,2.3h.4c1.2,0,2.2-.5,2.8-1.5.7-1,.7-2.5,0-3.5l-2.1-3.4c5.3-3.2,11.1-5.1,17.1-5.8,9.9-1,19,1.9,24.9,4.4,3.4,1.4,6,2.9,7.7,4h0ZM87.7,31.7c-7.4.8-14.5,3.3-20.9,7.5-1,.7-1.2,1.9-.7,2.9l2.1,3.4-16.3-1.9,6-15.2,2.5,3.7c.6.9,1.8,1.2,2.8.7,5-2.5,9.5-4.1,14.1-5,5-1,9.8-1.2,14.7-.5,6.5,1,13.3,3.6,20.4,8-6.3-2.5-15.2-4.7-24.8-3.8h0Z"/>
  <path class="st1" d="M48.4,96.3h0c4.9,0,9.5-1.9,12.9-5.3,3.5-3.5,5.3-8.1,5.3-13,0-10.1-8.2-18.3-18.3-18.3s-9.5,1.9-13,5.3c-3.4,3.5-5.3,8.1-5.3,13,0,10.1,8.2,18.3,18.3,18.3h0ZM38.9,68.5c2.5-2.5,5.9-4,9.5-4,7.4,0,13.4,6,13.4,13.4s-1.4,7-4,9.5c-2.5,2.5-5.9,4-9.5,4h0c-7.4,0-13.4-6-13.4-13.4s1.4-7,4-9.5h0Z"/>
  <path class="st1" d="M71.6,122c0-.6.4-16.1-9.3-25-.9-.8-2.2-.8-3.1-.1-.1,0-10.8,8.2-20.9,0-.9-.8-2.2-.8-3.1,0-.4.3-9.7,8.6-10,25,0,.6.2,1.3.7,1.7s1.1.8,1.7.8h41.5c1.3,0,2.4-1,2.4-2.3h0ZM30.2,119.5c.8-9.3,4.7-15.1,6.9-17.6,8.7,5.8,18.1,3,23.3,0,4.9,5.6,6.1,13.6,6.3,17.6H30.2h0Z"/>
  <path class="st1" d="M116.5,65.1c-3.4,3.5-5.3,8.1-5.3,13,0,10.1,8.2,18.3,18.3,18.3h0c4.9,0,9.5-1.9,13-5.3s5.3-8.1,5.3-13c0-10.1-8.2-18.3-18.3-18.3s-9.5,1.9-13,5.3h0ZM142.9,78.1c0,3.6-1.4,7-4,9.5-2.5,2.5-5.9,4-9.5,4h0c-7.4,0-13.4-6-13.4-13.4s1.4-7,4-9.5,5.9-4,9.5-4c7.4,0,13.4,6,13.4,13.4h0Z"/>
  <path class="st1" d="M143.3,97c-.9-.8-2.2-.8-3.1-.1,0,0-10.8,8.2-20.9,0-.9-.8-2.2-.8-3.1,0-.4.3-9.7,8.6-10,25,0,.6.3,1.3.7,1.7s1.1.8,1.7.8h41.5c1.3,0,2.4-1,2.4-2.3s.4-16.1-9.3-25h0ZM111.2,119.5c.8-9.3,4.7-15.1,6.9-17.6,8.7,5.8,18.1,3,23.3,0,4.9,5.6,6.1,13.6,6.3,17.6h-36.5Z"/>
</svg>