<?xml version="1.0" encoding="UTF-8"?>
<svg id="_Слой_1" xmlns="http://www.w3.org/2000/svg" version="1.1" viewBox="0 0 175 186.9">
  <!-- Generator: Adobe Illustrator 29.3.0, SVG Export Plug-In . SVG Version: 2.1.0 Build 146)  -->
  <defs>
    <style>
      .st0 {
        fill: #f1f5f6;
      }

      .st1 {
        fill: #3fc0ef;
      }
    </style>
  </defs>
  <circle class="st0" cx="87.5" cy="93.4" r="87"/>
  <g>
    <path class="st1" d="M40.5,80.6c-4.2,4.2-6.6,9.9-6.6,15.9,0,12.4,10.1,22.4,22.4,22.4h0c6,0,11.6-2.3,15.9-6.6,2.3-2.3,4-4.9,5.1-7.8h20.9c3.2,8.4,11.4,14.4,20.9,14.4h0c6,0,11.6-2.3,15.9-6.6s6.6-9.9,6.6-15.9c0-12.4-10.1-22.4-22.4-22.4s-7.1.9-10.2,2.5c-1.3-2-2.9-3.9-4.7-5.6-1.1-1-2.7-1.1-3.9-.2-.1,0-12.5,9.3-24.3.9l-6.2-9.6c4.1,5,10.4,8.2,17.4,8.2h0c6,0,11.6-2.3,15.9-6.6,4.2-4.2,6.6-9.9,6.6-15.9,0-12.4-10.1-22.4-22.4-22.4s-11.6,2.3-15.9,6.6c-4.2,4.2-6.6,9.9-6.6,15.9s.9,7,2.4,10.1l-7.5-11.6c-2.3-3.5-7-4.6-10.6-2.3s-4.6,7-2.3,10.6l12.7,19.7c-1-.2-2.1-.3-3.2-.3-6,0-11.6,2.3-15.9,6.6h0s0,0,0,0ZM75.6,36.2c3.1-3.1,7.2-4.8,11.6-4.8,9,0,16.4,7.3,16.4,16.4,0,4.4-1.7,8.5-4.8,11.6-3.1,3.1-7.2,4.8-11.6,4.8-9,0-16.4-7.3-16.4-16.4,0-4.4,1.7-8.5,4.8-11.6h0ZM107.6,84.9c3.1-3.1,7.2-4.8,11.6-4.8,9,0,16.4,7.3,16.4,16.4s-1.7,8.5-4.8,11.6c-3.1,3.1-7.2,4.8-11.6,4.8h0c-9,0-16.4-7.3-16.4-16.4,0-4.4,1.7-8.5,4.8-11.6h0ZM51,51.9c-.4-.6-.5-1.3-.4-2,.2-.7.6-1.3,1.2-1.7,1.2-.8,3-.4,3.7.8l14.6,22.6h0l3.8,5.8.2.2c1,.6,2.1,1.2,3.2,1.7.9.4,1.8.7,2.8,1,9.3,2.7,17.9-1.1,21.6-3.3.8.9,1.6,2,2.2,3-.2.2-.4.4-.7.6-4.2,4.2-6.6,9.9-6.6,15.9s0,1.3,0,1.9h-18.1c0-.6,0-1.3,0-1.9,0-8.5-4.8-15.9-11.7-19.7l-.3-.5-15.7-24.3h0ZM72.7,96.4c0,4.4-1.7,8.5-4.8,11.6-3.1,3.1-7.2,4.8-11.6,4.8h0c-9,0-16.4-7.3-16.4-16.4s1.7-8.5,4.8-11.6,7.2-4.8,11.6-4.8c9,0,16.4,7.3,16.4,16.4h0Z"/>
    <path class="st1" d="M132.3,119.4c-.5.4-13.3,9.9-25.4,0-1.1-.9-2.8-.9-3.9,0-.5.4-11.9,10.6-12.2,30.6,0,.8.3,1.6.9,2.2.6.6,1.3.9,2.2.9h50.8c1.6,0,3-1.3,3-2.9,0-.8.5-19.7-11.4-30.6-1.1-1-2.7-1.1-3.9-.2h0ZM141.4,147.1h-44.5c.9-11.2,5.8-18.3,8.4-21.3,10.7,7.1,22.1,3.7,28.4,0,6,6.8,7.4,16.5,7.7,21.4h0Z"/>
    <path class="st1" d="M69,119.8c-.5.4-13.3,9.9-25.4,0-1.1-.9-2.8-.9-3.9,0-.5.4-11.9,10.6-12.2,30.6,0,.8.3,1.6.9,2.2.6.6,1.3.9,2.2.9h50.8c1.6,0,3-1.3,3-2.9,0-.8.5-19.7-11.4-30.6-1.1-1-2.7-1.1-3.9-.2h0ZM78.1,147.5h-44.5c.9-11.2,5.8-18.3,8.4-21.3,10.7,7.1,22.1,3.7,28.4,0,6,6.8,7.4,16.5,7.7,21.4h0Z"/>
  </g>
</svg>