<?xml version="1.0" encoding="UTF-8"?>
<svg id="Objects" xmlns="http://www.w3.org/2000/svg" viewBox="0 0 1138.42 1119.01">
  <defs>
    <style>
      .cls-1 {
        fill: #fff;
      }
    </style>
  </defs>
  <path class="cls-1" d="M569.21,569.07c-2.39,0-4.78-.54-6.97-1.65L8.55,288.8C3.23,286.11-.08,280.66,0,274.72c.09-5.94,3.55-11.31,8.94-13.83L562.64,1.48c4.15-1.97,9-1.97,13.15,0l553.69,259.41c5.38,2.52,8.85,7.89,8.94,13.83.08,5.94-3.23,11.39-8.54,14.07l-553.69,278.63c-2.18,1.11-4.57,1.65-6.97,1.65ZM51.01,275.43l518.21,260.76,518.2-260.76L569.21,32.65,51.01,275.43Z"/>
  <path class="cls-1" d="M569.21,747.06c-2.39,0-4.78-.55-6.97-1.65L8.55,466.78C3.23,464.1-.08,458.65,0,452.71c.09-5.94,3.55-11.31,8.94-13.83l118.69-55.61c7.73-3.65,16.99-.28,20.62,7.47,3.63,7.76.3,16.98-7.47,20.62l-89.78,42.07,518.21,260.76,518.2-260.76-91.47-42.85c-7.77-3.64-11.1-12.86-7.47-20.62,3.62-7.76,12.86-11.11,20.61-7.47l120.39,56.4c5.38,2.52,8.85,7.89,8.94,13.83.08,5.93-3.23,11.39-8.54,14.07l-553.69,278.62c-2.18,1.11-4.57,1.65-6.97,1.65Z"/>
  <path class="cls-1" d="M569.21,923.29c-2.39,0-4.78-.55-6.97-1.65L8.55,643C3.23,640.32-.08,634.87,0,628.93c.09-5.94,3.56-11.32,8.94-13.83l118.69-55.6c7.73-3.67,16.99-.28,20.62,7.47,3.63,7.76.29,16.99-7.47,20.62l-89.76,42.06,518.19,260.78,518.2-260.78-91.47-42.86c-7.77-3.63-11.1-12.86-7.47-20.61,3.62-7.76,12.86-11.13,20.61-7.47l120.39,56.4c5.38,2.51,8.85,7.89,8.94,13.83.08,5.94-3.23,11.39-8.54,14.07l-553.69,278.64c-2.18,1.11-4.57,1.65-6.97,1.65Z"/>
  <path class="cls-1" d="M569.21,1119.01c-2.39,0-4.78-.54-6.97-1.65L8.55,838.74C3.23,836.06-.08,830.61,0,824.67c.09-5.94,3.55-11.31,8.94-13.83l118.69-55.61c7.73-3.65,16.99-.31,20.62,7.47,3.63,7.76.3,16.98-7.47,20.62l-89.78,42.07,518.21,260.76,518.2-260.76-91.47-42.85c-7.77-3.64-11.1-12.86-7.47-20.62,3.62-7.76,12.86-11.13,20.61-7.47l120.39,56.4c5.38,2.52,8.85,7.89,8.94,13.83.08,5.94-3.23,11.39-8.54,14.07l-553.69,278.63c-2.18,1.11-4.57,1.65-6.97,1.65Z"/>
</svg>