<?xml version="1.0" encoding="UTF-8"?>
<svg id="_Слой_1" xmlns="http://www.w3.org/2000/svg" version="1.1" viewBox="0 0 175 186.9">
  <!-- Generator: Adobe Illustrator 29.3.0, SVG Export Plug-In . SVG Version: 2.1.0 Build 146)  -->
  <defs>
    <style>
      .st0 {
        fill: #f1f5f6;
      }

      .st1 {
        fill: #65c9f6;
      }
    </style>
  </defs>
  <circle class="st0" cx="87.5" cy="93.4" r="87"/>
  <g>
    <path class="st1" d="M15.9,128.8c-2.4-.5-1.9-4.7-1.8-6.8.4-7.5,6.5-25.3,13.2-29.2s4.7,1.2,7.1,2.4c6.4,3.2,12.8,3.1,19.4.6,5.2-2,6.6-6.2,11.5-1s4.9,8,5.4,8.4,1.8.3,2.5.7c7.8,4.7,11.7,6.8,21.2,4s6.5-3.8,8.6-4.4,1.9.4,2,.3c.3-.2,2.2-4.4,3.1-5.6s4-5.4,5.3-5.7c2.7-.8,3.5,1.1,5.3,2,8,4.1,13.6,4.4,22,.8,5.3-2.3,5.6-5.4,10.6,0s9.2,17.4,9.7,25.2c.1,1.7.6,8.2-1.8,8.2h-41.6c.3,2.6,1.9,10.7-1.3,11.3h-58c-3.1-1.5-.7-8.6-1-11.3H15.9ZM58.6,123.9c1-3.9,2.6-7.6,4.6-11.1s3.3-4.4,3.4-5.1c.2-1.5-4.4-9.2-5.7-9.2s-6.9,3.2-8.9,3.6c-8.3,2-15.6.9-22.8-3.4-5.6,7-9.3,16.1-9.5,25.2h38.9ZM155.3,123.9c.2-5-.8-10.4-2.6-15.1s-4.8-10.4-6.6-10.4c-10,5.8-21.7,6.4-31.7.2-.7.4-5.5,8.1-5.5,9s3.2,5.2,3.9,6.5c1.5,3.1,2.2,6.6,3.8,9.7h38.6ZM62.1,134.8h50.4c-.2-9-3.1-18-8.8-25-8.2,4.4-17.4,6.3-26.3,2.9s-5.2-3-5.9-2.7c-5.7,6.9-8.9,15.8-9.5,24.7Z"/>
    <path class="st1" d="M68.6,62.5c10.7-11.5,27.5-11.2,37.9.5,2.5-15.5,18.4-24.4,33.1-18.4,15.3,6.3,19.7,25.6,8.8,38.1-10.2,11.7-27.5,10.5-37.4-.8-4.4,26.7-42.3,26.9-47.4.5-20.3,22.8-55.9-4.1-38.6-29.4,12.1-17.8,39.8-11.4,43.6,9.4ZM63.7,66.8c0-10.4-8.4-18.8-18.8-18.8s-18.8,8.4-18.8,18.8,8.4,18.8,18.8,18.8,18.8-8.4,18.8-18.8ZM149,66.8c0-10.4-8.4-18.8-18.8-18.8s-18.8,8.4-18.8,18.8,8.4,18.8,18.8,18.8,18.8-8.4,18.8-18.8ZM106.1,78.2c0-10.4-8.4-18.8-18.8-18.8s-18.8,8.4-18.8,18.8,8.4,18.8,18.8,18.8,18.8-8.4,18.8-18.8Z"/>
  </g>
</svg>