<?xml version="1.0" encoding="UTF-8"?>
<svg id="_Слой_1" data-name="Слой 1" xmlns="http://www.w3.org/2000/svg" viewBox="0 0 241.21 241.21">
  <defs>
    <style>
      .cls-1 {
        fill: #fff;
      }

      .cls-2 {
        fill: #23aa6b;
      }
    </style>
  </defs>
  <rect class="cls-2" width="241.21" height="241.21" rx="57.62" ry="57.62"/>
  <path class="cls-1" d="M181.62,161.17c-9.31-8.64-27.99-25.62-44.92-38.92-1.07-.84-1.08-2.47,0-3.31,16.98-13.33,35.62-30.28,44.92-38.91,1.28-1.19,3.36-.39,3.53,1.35,1.88,19.85,1.88,58.6,0,78.44-.17,1.74-2.25,2.53-3.53,1.35ZM178.82,76.89c-11.57,10.73-37.85,34.58-57.01,47.9-.72.5-1.68.5-2.41,0-19.16-13.32-45.44-37.17-57.01-47.9-1.3-1.2-.62-3.38,1.13-3.63,11.74-1.69,32.83-2.75,57.09-2.75s45.35,1.06,57.09,2.75c1.75.25,2.43,2.42,1.13,3.63ZM56.05,159.82c-1.88-19.85-1.88-58.6,0-78.44.17-1.74,2.25-2.53,3.53-1.35,9.3,8.63,27.95,25.58,44.93,38.91,1.07.84,1.07,2.47,0,3.31-16.93,13.29-35.61,30.27-44.92,38.91-1.28,1.19-3.36.39-3.53-1.35ZM62.39,164.32c9.56-8.87,29.15-26.68,46.44-40.09.75-.58,1.79-.59,2.55-.03,2.8,2.08,5.5,4,8.05,5.71h0c.71.47,1.63.47,2.34,0h0c2.55-1.71,5.26-3.63,8.05-5.71.76-.56,1.8-.55,2.55.03,17.29,13.41,36.89,31.22,46.44,40.09,1.3,1.2.62,3.38-1.13,3.63-11.74,1.69-32.83,2.75-57.09,2.75s-45.35-1.06-57.09-2.75c-1.75-.25-2.43-2.42-1.13-3.63Z"/>
</svg>