<?xml version="1.0" encoding="UTF-8"?>
<svg id="_Слой_1" data-name="Слой 1" xmlns="http://www.w3.org/2000/svg" viewBox="0 0 516.57 134.76">
  <defs>
    <style>
      .cls-1 {
        fill-rule: evenodd;
      }

      .cls-1, .cls-2 {
        fill: #fff;
      }
    </style>
  </defs>
  <g>
    <path class="cls-1" d="M58.6,13.7v32.93h0c-2.52-3.23-6.46-5.31-10.87-5.31-7.61,0-13.79,6.17-13.79,13.79,0,3.68,1.45,7.03,3.8,9.5h0s20.86,21.65,20.86,21.65h0s0,24.08,0,24.08c-2.05,1.08-4.84,2.54-6.38,3.36-1.37.72-2.66,1.39-3.77,1.97-6.47-4.13-11.91-8.38-16.43-12.92-5.01-5.03-8.88-10.42-11.78-16.4-3.55-7.32-5.78-15.74-6.98-25.63-1.09-8.99-1.34-19.12-.95-30.66,3.34-.52,6.72-1.17,10.12-1.95,4.8-1.1,9.6-2.47,14.34-4.12,4.57-1.59,9.03-3.44,13.31-5.56,2.91-1.43,5.76-3.01,8.53-4.73"/>
    <path class="cls-1" d="M107.92,91.69c-8.39,17.28-23.17,30.17-47.23,42.53l-.04.02c-.13.07-.25.13-.39.19-.25.11-.52.19-.8.25-.27.06-.55.08-.84.08-.33,0-.65-.04-.96-.11-.32-.07-.62-.19-.91-.33h0c-.07-.03-.14-.07-.21-.11l-.14-.07c-23.97-12.38-38.72-25.26-47.09-42.52C.94,74.37-1.05,52.77.47,22.97v-.05c0-.08.01-.16.02-.26.09-.98.52-1.86,1.17-2.53.65-.67,1.52-1.12,2.5-1.23h.08c9.5-1.06,19.25-3.12,28.54-6.36,8.38-2.92,16.37-6.81,23.45-11.79l.11-.07c.34-.22.71-.39,1.1-.51.38-.11.78-.17,1.2-.17s.84.06,1.23.19c.41.12.78.31,1.13.54,0,0,.04.03.05.03,7.07,4.97,15.04,8.85,23.4,11.77,9.26,3.24,18.99,5.29,28.47,6.35h.02c.07.01.14.02.22.03.97.13,1.83.59,2.47,1.26.64.67,1.06,1.55,1.14,2.52,0,.07.01.16.01.23,1.52,29.85-.47,51.49-8.85,68.76M110.59,49.95c.18-3.81.24-7.79.21-11.96-.03-4.11-.16-8.42-.37-12.93-4.76-.59-9.58-1.42-14.37-2.52-4.63-1.06-9.24-2.37-13.76-3.95-4.33-1.51-8.56-3.27-12.64-5.28-3.84-1.9-7.55-4.03-11.06-6.41-3.52,2.38-7.23,4.51-11.08,6.41-4.08,2.02-8.33,3.77-12.66,5.29-4.51,1.57-9.12,2.88-13.74,3.94-4.79,1.1-9.6,1.93-14.35,2.52-.65,13.88-.49,25.85.78,36.32,1.28,10.51,3.68,19.52,7.52,27.44,3.18,6.56,7.41,12.45,12.88,17.94,5.45,5.47,12.12,10.53,20.2,15.43.83-.42,1.81-.92,2.87-1.47,1.2-.62,2.51-1.3,3.82-1.99,2.2-1.16,4.4-2.32,6.15-3.26,1.74-.93,3.03-1.64,3.44-1.89.28-.17.53-.32.75-.45l.47-.29c-.44-.43-.8-.89-1.09-1.39-.35-.6-.61-1.24-.77-1.91-.15-.64-.21-1.29-.2-1.96.02-.7.12-1.4.3-2.12.33-1.35.94-2.74,1.72-4.11.91-1.62,2.05-3.21,3.24-4.67,5.75-7.12,11.63-10.69,17.89-14.49l.06-.04c1.56-.95,3.15-1.91,4.75-2.95,1.62-1.05,3.27-2.17,4.93-3.44.75-.57,1.5-1.18,2.23-1.82.73-.63,1.44-1.3,2.13-2.02.68-.69,1.33-1.42,1.95-2.19.62-.77,1.21-1.58,1.77-2.43.55-.84,1.07-1.76,1.58-2.81.51-1.05,1.02-2.23,1.54-3.58.5-1.3,1.06-2.77,1.58-4.55.51-1.78.98-3.87,1.29-6.43ZM59.48,127.62c10.87-5.7,19.65-11.5,26.66-17.82,7.01-6.32,12.23-13.15,16-20.9,1.15-2.37,2.18-4.85,3.08-7.42.79-2.26,1.49-4.61,2.1-7.06-.18.22-.37.43-.55.64-.42.47-.84.93-1.27,1.37-.8.82-1.63,1.59-2.47,2.33-.84.73-1.72,1.44-2.62,2.13-1.8,1.37-3.55,2.57-5.26,3.67-1.7,1.1-3.38,2.12-5.03,3.12h0c-5.75,3.49-11.15,6.77-16.2,13.04-.93,1.15-1.81,2.36-2.5,3.52-.58.98-1.02,1.93-1.22,2.77-.06.22-.09.43-.1.62-.01.17,0,.31.03.44h0s.02.08.04.12c.1.22.32.41.59.52.28.12.63.16.96.08.08-.02.16-.05.24-.08.35-.25.7-.51,1.06-.77.35-.25.7-.52,1.06-.79,1.44-1.09,2.81-2.19,4.11-3.31,1.3-1.12,2.53-2.25,3.68-3.4.63-.63,1.45-.94,2.27-.93.82,0,1.64.32,2.27.95.62.63.94,1.45.93,2.27,0,.82-.32,1.64-.95,2.27-1.27,1.27-2.61,2.5-4.02,3.72-1.41,1.22-2.89,2.41-4.43,3.57-1.52,1.15-3.13,2.3-4.83,3.43-1.69,1.13-3.47,2.26-5.33,3.38-.47.29-1.83,1.03-3.63,2-1.79.97-4.03,2.16-6.26,3.33-.51.27-1.1.58-1.79.94l-1.26.66c.43.24.86.47,1.3.71.57.31,1.14.61,1.71.91h.02c.12.08.24.13.38.16.13.03.26.05.4.05s.28-.02.41-.05c.14-.03.26-.09.38-.15l.04-.02h0Z"/>
    <path class="cls-1" d="M58.6,46.63c2.52-3.23,6.46-5.31,10.87-5.31,7.61,0,13.79,6.17,13.79,13.79,0,3.72-1.47,7.09-3.86,9.57h0l-20.8,21.59v-39.63Z"/>
  </g>
  <g>
    <g>
      <path class="cls-2" d="M146.94,61.92c.38.25.81.44,1.31.59s1.06.22,1.68.22c.82,0,1.47-.24,1.94-.73s.8-1.09.98-1.82l-10.2-21.57h6.77l6.54,15.46,5.73-15.46h6.46l-9.18,21.24c-1.2,2.8-2.47,4.88-3.82,6.23-1.34,1.35-2.84,2.03-4.5,2.03-.52,0-.97-.03-1.36-.08s-.72-.12-1-.2c-.28-.08-.53-.15-.74-.23-.22-.08-.42-.15-.62-.21v-5.46Z"/>
      <path class="cls-2" d="M171.22,46.05h5.54v8.1l7.98-8.1h7.36l-8.81,8.86,9.18,12.47h-7.22l-6.26-9-2.23,2.25v6.75h-5.54v-21.33Z"/>
      <path class="cls-2" d="M195.39,46.05h5.28v3.05h.08c.38-.64.78-1.19,1.19-1.65s.88-.84,1.39-1.15c.51-.3,1.07-.52,1.69-.66.62-.14,1.32-.22,2.1-.22.65,0,1.32.08,2.02.23s1.37.41,2.03.75c.66.35,1.28.8,1.87,1.35.59.55,1.1,1.23,1.55,2.04.44.81.8,1.75,1.06,2.83.26,1.08.39,2.31.39,3.69,0,1.72-.19,3.3-.56,4.74-.37,1.44-.93,2.67-1.68,3.7-.75,1.03-1.7,1.83-2.84,2.41-1.14.57-2.48.86-4.02.86-.54,0-1.08-.05-1.63-.15-.55-.11-1.08-.28-1.6-.53s-1.01-.59-1.48-1.01-.87-.96-1.22-1.59h-.08v10.9h-5.54v-29.59ZM205.49,50.39c-.89,0-1.63.19-2.24.57s-1.1.87-1.47,1.47c-.37.6-.64,1.28-.81,2.04-.17.76-.25,1.51-.25,2.25,0,.4.02.84.07,1.32s.13.96.26,1.45c.13.49.31.96.54,1.42s.52.86.87,1.22c.35.35.78.63,1.27.85.5.22,1.08.33,1.76.33s1.26-.11,1.76-.33c.5-.21.92-.5,1.27-.85.35-.35.64-.76.87-1.22s.41-.93.54-1.42c.13-.49.22-.97.26-1.45.05-.48.07-.92.07-1.32,0-.74-.09-1.49-.26-2.25-.17-.76-.44-1.44-.81-2.04-.37-.6-.87-1.09-1.48-1.47s-1.36-.57-2.23-.57Z"/>
      <path class="cls-2" d="M237.27,63.17c0,.64.04,1.16.11,1.58.07.41.17.74.28.98s.25.42.4.53.31.19.48.25v.88h-6.13c-.1-.25-.22-.58-.34-.99s-.19-.91-.19-1.5c-.43.44-.85.85-1.26,1.23-.41.38-.87.71-1.38.99-.51.28-1.1.5-1.76.67-.67.16-1.47.24-2.41.24s-1.83-.14-2.63-.42-1.5-.69-2.08-1.24c-.59-.55-1.04-1.23-1.37-2.06s-.49-1.77-.49-2.86c0-.88.14-1.69.41-2.44.28-.75.66-1.41,1.16-1.98s1.12-1.04,1.84-1.41,1.54-.62,2.44-.75l5.42-.8c.2-.03.41-.07.64-.12.23-.05.44-.14.64-.26.2-.12.36-.29.49-.51.13-.22.19-.51.19-.87s-.05-.68-.17-.97c-.11-.29-.3-.55-.56-.76-.26-.22-.61-.38-1.05-.5-.44-.12-.98-.18-1.63-.18-.74,0-1.34.08-1.79.22-.45.15-.8.36-1.07.63s-.45.58-.57.94c-.12.36-.2.74-.26,1.15h-5.54c0-.26.04-.62.13-1.09.08-.46.24-.97.47-1.52.23-.55.55-1.1.96-1.66.41-.56.95-1.07,1.62-1.53.67-.46,1.49-.84,2.46-1.15.97-.3,2.12-.46,3.47-.47,1.9,0,3.45.19,4.63.58,1.18.39,2.1.89,2.76,1.51.66.62,1.1,1.31,1.33,2.07s.34,1.52.34,2.28v11.31ZM231.73,56.97c-.34.18-.68.35-1.02.5-.34.15-.79.28-1.35.38l-1.47.27c-.64.12-1.2.26-1.68.41-.48.16-.88.36-1.2.62-.32.26-.56.56-.72.93-.16.36-.25.82-.25,1.37,0,.46.07.85.22,1.18.14.33.34.61.6.82.25.22.55.37.89.48s.7.16,1.1.16c.21,0,.47-.02.8-.07.33-.05.67-.13,1.04-.26.36-.13.73-.31,1.09-.54.37-.23.69-.53.98-.89s.52-.81.7-1.34c.18-.53.27-1.15.27-1.87v-2.15Z"/>
      <path class="cls-2" d="M240.48,38.16h4.42v4.74h-4.42v-4.74ZM243.26,46.05h5.54v21.33h-5.54v-21.33ZM247.15,38.16h4.42v4.74h-4.42v-4.74Z"/>
      <path class="cls-2" d="M255.02,46.05h5.54v7.71h8.14v-7.71h5.52v21.33h-5.52v-9.14h-8.14v9.14h-5.54v-21.33Z"/>
      <path class="cls-2" d="M292.01,53.58c-.1-.56-.25-1.05-.43-1.48-.18-.42-.42-.78-.71-1.08-.29-.29-.65-.52-1.08-.67-.42-.15-.94-.22-1.53-.22-.93,0-1.67.22-2.22.64-.56.43-.98.97-1.28,1.63-.3.65-.5,1.36-.6,2.13-.1.77-.15,1.49-.15,2.17s.04,1.44.12,2.22c.08.77.26,1.49.55,2.13.29.64.71,1.18,1.27,1.59s1.33.63,2.31.63c.64,0,1.19-.13,1.66-.38.47-.26.86-.57,1.17-.95.31-.38.54-.78.7-1.21.15-.43.22-.82.22-1.18h5.77c0,.35-.06.81-.19,1.37-.12.56-.33,1.16-.62,1.78-.29.62-.67,1.25-1.15,1.89-.48.63-1.07,1.2-1.78,1.7-.71.5-1.54.91-2.5,1.23-.95.32-2.05.48-3.31.48-1.63,0-3.07-.25-4.32-.74-1.25-.49-2.29-1.22-3.13-2.18-.84-.96-1.48-2.14-1.92-3.55-.44-1.41-.66-3.02-.66-4.84s.24-3.42.71-4.82c.47-1.4,1.15-2.58,2.03-3.54s1.93-1.69,3.16-2.18c1.23-.49,2.61-.74,4.12-.74.65,0,1.33.05,2.03.16.7.11,1.39.28,2.06.54.68.26,1.33.59,1.95.99.62.41,1.17.91,1.66,1.52.49.61.89,1.32,1.21,2.13.32.82.53,1.76.62,2.83h-5.77Z"/>
      <path class="cls-2" d="M301.76,46.05h5.54v7.42h5.66c1.32,0,2.49.14,3.53.41s1.91.7,2.63,1.27c.72.57,1.27,1.3,1.64,2.18.38.88.57,1.92.57,3.12,0,1.08-.16,2.01-.47,2.78-.31.77-.71,1.41-1.2,1.93-.49.52-1.04.92-1.63,1.21-.6.29-1.19.52-1.76.67-.57.15-1.11.25-1.59.28s-.86.06-1.12.06h-11.78v-21.33ZM307.29,63.21h4.68c.43,0,.86-.04,1.28-.11.42-.07.81-.21,1.15-.41.35-.2.62-.48.83-.84.21-.36.31-.82.31-1.4s-.11-1.03-.32-1.39-.51-.65-.88-.86c-.37-.21-.8-.35-1.29-.44s-1.01-.13-1.56-.13h-4.21v5.58Z"/>
      <path class="cls-2" d="M325.12,46.05h5.54v8.1l7.98-8.1h7.36l-8.81,8.86,9.18,12.47h-7.22l-6.26-9-2.23,2.25v6.75h-5.54v-21.33Z"/>
      <path class="cls-2" d="M366.69,63.17c0,.64.04,1.16.11,1.58.07.41.16.74.28.98.12.24.25.42.4.53s.31.19.48.25v.88h-6.13c-.1-.25-.22-.58-.34-.99s-.19-.91-.19-1.5c-.43.44-.85.85-1.26,1.23-.41.38-.87.71-1.38.99-.51.28-1.1.5-1.76.67-.67.16-1.47.24-2.41.24s-1.83-.14-2.63-.42-1.5-.69-2.08-1.24c-.59-.55-1.04-1.23-1.37-2.06s-.49-1.77-.49-2.86c0-.88.14-1.69.41-2.44.28-.75.66-1.41,1.16-1.98s1.12-1.04,1.84-1.41,1.54-.62,2.44-.75l5.42-.8c.2-.03.41-.07.64-.12.23-.05.44-.14.64-.26.2-.12.36-.29.49-.51.13-.22.19-.51.19-.87s-.05-.68-.17-.97c-.11-.29-.3-.55-.56-.76-.26-.22-.61-.38-1.05-.5-.44-.12-.98-.18-1.63-.18-.74,0-1.34.08-1.79.22-.45.15-.8.36-1.07.63s-.45.58-.57.94c-.12.36-.2.74-.26,1.15h-5.54c0-.26.04-.62.13-1.09.08-.46.24-.97.47-1.52.23-.55.55-1.1.96-1.66.41-.56.95-1.07,1.62-1.53.67-.46,1.49-.84,2.46-1.15.97-.3,2.12-.46,3.47-.47,1.9,0,3.45.19,4.63.58,1.18.39,2.1.89,2.76,1.51s1.1,1.31,1.33,2.07.34,1.52.34,2.28v11.31ZM361.15,56.97c-.34.18-.68.35-1.02.5-.34.15-.79.28-1.35.38l-1.47.27c-.64.12-1.2.26-1.68.41-.48.16-.88.36-1.2.62-.32.26-.56.56-.72.93-.16.36-.25.82-.25,1.37,0,.46.07.85.22,1.18.14.33.34.61.6.82.25.22.55.37.89.48s.7.16,1.1.16c.21,0,.47-.02.8-.07.33-.05.67-.13,1.04-.26.36-.13.73-.31,1.09-.54.37-.23.69-.53.98-.89s.52-.81.7-1.34c.18-.53.27-1.15.27-1.87v-2.15Z"/>
      <path class="cls-2" d="M401.64,48.06c-.08-.27-.18-.59-.29-.95-.12-.36-.28-.72-.48-1.09-.2-.36-.46-.72-.76-1.08-.3-.35-.69-.67-1.15-.94-.46-.27-1-.5-1.64-.67-.64-.17-1.39-.26-2.25-.26-.36,0-.8.05-1.29.14-.49.09-1.01.27-1.53.52-.52.25-1.04.61-1.55,1.07s-.96,1.05-1.36,1.79-.72,1.63-.97,2.67c-.25,1.04-.37,2.28-.37,3.72,0,1.55.16,2.94.49,4.17s.8,2.26,1.41,3.11c.61.85,1.36,1.5,2.22,1.95.87.45,1.85.68,2.95.68,1.26,0,2.29-.2,3.09-.59.8-.39,1.43-.87,1.91-1.43s.83-1.15,1.07-1.76.42-1.15.55-1.6h5.97c-.33,1.8-.87,3.36-1.62,4.69s-1.68,2.42-2.76,3.3c-1.08.87-2.3,1.52-3.65,1.96-1.35.43-2.79.65-4.31.65-2.14,0-4.04-.36-5.69-1.07s-3.04-1.72-4.17-3.04c-1.13-1.32-1.99-2.91-2.58-4.77-.59-1.86-.88-3.94-.88-6.23,0-1.78.17-3.38.51-4.81.34-1.44.81-2.71,1.42-3.83.61-1.12,1.32-2.08,2.14-2.9.82-.82,1.72-1.49,2.69-2.01.97-.53,1.99-.92,3.07-1.17,1.07-.26,2.15-.38,3.25-.38,1.57,0,2.95.16,4.17.49,1.21.33,2.27.76,3.19,1.31.91.55,1.69,1.17,2.34,1.88.65.7,1.18,1.43,1.59,2.18.41.75.72,1.5.92,2.25.2.75.33,1.44.38,2.06h-6.01Z"/>
      <path class="cls-2" d="M411.82,46.05h19.2v21.33h-5.52v-16.83h-8.14v16.83h-5.54v-21.33Z"/>
      <path class="cls-2" d="M436.45,37.67h5.54v5.23h-5.54v-5.23ZM436.45,46.05h5.54v21.33h-5.54v-21.33Z"/>
      <path class="cls-2" d="M467.77,67.38h-5.52v-16.83h-6.53l-.12,3.97c-.06,2.23-.21,4.19-.43,5.87-.22,1.68-.58,3.09-1.09,4.22-.5,1.13-1.18,1.98-2.04,2.55-.85.57-1.94.86-3.28.86-.63,0-1.17-.04-1.64-.11-.47-.07-.85-.18-1.16-.3v-4.64c.18.08.41.15.69.22.28.06.62.1,1.03.1s.79-.13,1.11-.38c.33-.26.61-.72.84-1.39s.42-1.6.55-2.79c.13-1.19.21-2.72.25-4.6l.16-8.08h17.16v21.33Z"/>
      <path class="cls-2" d="M473.74,46.05h5.54v8.1l7.98-8.1h7.36l-8.8,8.86,9.18,12.47h-7.22l-6.26-9-2.23,2.25v6.75h-5.54v-21.33Z"/>
      <path class="cls-2" d="M515.3,63.17c0,.64.04,1.16.11,1.58.07.41.16.74.28.98.12.24.25.42.4.53s.31.19.48.25v.88h-6.12c-.11-.25-.22-.58-.34-.99-.13-.41-.19-.91-.19-1.5-.43.44-.85.85-1.26,1.23-.41.38-.87.71-1.38.99s-1.1.5-1.76.67c-.67.16-1.47.24-2.41.24s-1.83-.14-2.63-.42-1.5-.69-2.08-1.24c-.59-.55-1.04-1.23-1.37-2.06s-.49-1.77-.49-2.86c0-.88.14-1.69.41-2.44.27-.75.66-1.41,1.16-1.98s1.11-1.04,1.84-1.41,1.54-.62,2.44-.75l5.42-.8c.19-.03.41-.07.63-.12.23-.05.44-.14.64-.26s.36-.29.49-.51c.13-.22.2-.51.2-.87s-.06-.68-.16-.97c-.11-.29-.3-.55-.56-.76-.26-.22-.61-.38-1.05-.5-.44-.12-.98-.18-1.64-.18-.74,0-1.34.08-1.79.22-.45.15-.81.36-1.07.63-.26.27-.45.58-.57.94-.12.36-.2.74-.26,1.15h-5.54c0-.26.04-.62.13-1.09s.24-.97.47-1.52.55-1.1.96-1.66c.41-.56.95-1.07,1.62-1.53s1.49-.84,2.46-1.15c.97-.3,2.12-.46,3.47-.47,1.9,0,3.45.19,4.63.58s2.1.89,2.76,1.51,1.1,1.31,1.33,2.07.34,1.52.34,2.28v11.31ZM509.76,56.97c-.34.18-.68.35-1.02.5s-.79.28-1.35.38l-1.47.27c-.64.12-1.2.26-1.68.41-.48.16-.88.36-1.2.62-.32.26-.56.56-.73.93-.16.36-.25.82-.25,1.37,0,.46.07.85.22,1.18.14.33.34.61.6.82.25.22.55.37.89.48s.7.16,1.1.16c.21,0,.48-.02.8-.07s.67-.13,1.04-.26.73-.31,1.1-.54c.36-.23.69-.53.98-.89s.52-.81.7-1.34c.18-.53.27-1.15.27-1.87v-2.15Z"/>
    </g>
    <g>
      <path class="cls-2" d="M144.49,86.39h23.33v28.77h-6.01v-23.82h-11.29v23.82h-6.03v-28.77Z"/>
      <path class="cls-2" d="M173.12,93.83h5.28v3.05h.08c.38-.64.78-1.19,1.19-1.65s.88-.84,1.39-1.15c.51-.3,1.07-.52,1.69-.66.62-.14,1.32-.22,2.1-.22.65,0,1.32.08,2.02.23s1.37.41,2.03.75c.66.35,1.28.8,1.87,1.35.59.55,1.1,1.23,1.55,2.04.44.81.8,1.75,1.06,2.83.26,1.08.39,2.31.39,3.69,0,1.72-.19,3.3-.56,4.74-.37,1.44-.93,2.67-1.68,3.7-.75,1.03-1.7,1.83-2.84,2.41-1.14.57-2.48.86-4.02.86-.54,0-1.08-.05-1.63-.15-.55-.11-1.08-.28-1.6-.53s-1.01-.59-1.48-1.01-.87-.96-1.22-1.59h-.08v10.9h-5.54v-29.59ZM183.22,98.17c-.89,0-1.63.19-2.24.57s-1.1.87-1.47,1.47c-.37.6-.64,1.28-.81,2.04-.17.76-.25,1.51-.25,2.25,0,.4.02.84.07,1.32s.13.96.26,1.45c.13.49.31.96.54,1.42s.52.86.87,1.22c.35.35.78.63,1.27.85.5.22,1.08.33,1.76.33s1.26-.11,1.76-.33c.5-.21.92-.5,1.27-.85.35-.35.64-.76.87-1.22s.41-.93.54-1.42c.13-.49.22-.97.26-1.45.05-.48.07-.92.07-1.32,0-.74-.09-1.49-.26-2.25-.17-.76-.44-1.44-.81-2.04-.37-.6-.87-1.09-1.48-1.47s-1.36-.57-2.23-.57Z"/>
      <path class="cls-2" d="M215,110.95c0,.64.04,1.16.11,1.58.07.41.17.74.28.98s.25.42.4.53.31.19.48.25v.88h-6.13c-.1-.25-.22-.58-.34-.99s-.19-.91-.19-1.5c-.43.44-.85.85-1.26,1.23-.41.38-.87.71-1.38.99-.51.28-1.1.5-1.76.67-.67.16-1.47.24-2.41.24s-1.83-.14-2.63-.42-1.5-.69-2.08-1.24c-.59-.55-1.04-1.23-1.37-2.06s-.49-1.77-.49-2.86c0-.88.14-1.69.41-2.44.28-.75.66-1.41,1.16-1.98s1.12-1.04,1.84-1.41,1.54-.62,2.44-.75l5.42-.8c.2-.03.41-.07.64-.12.23-.05.44-.14.64-.26.2-.12.36-.29.49-.51.13-.22.19-.51.19-.87s-.05-.68-.17-.97c-.11-.29-.3-.55-.56-.76-.26-.22-.61-.38-1.05-.5-.44-.12-.98-.18-1.63-.18-.74,0-1.34.08-1.79.22-.45.15-.8.36-1.07.63s-.45.58-.57.94c-.12.36-.2.74-.26,1.15h-5.54c0-.26.04-.62.13-1.09.08-.46.24-.97.47-1.52.23-.55.55-1.1.96-1.66.41-.56.95-1.07,1.62-1.53.67-.46,1.49-.84,2.46-1.15.97-.3,2.12-.46,3.47-.47,1.9,0,3.45.19,4.63.58,1.18.39,2.1.89,2.76,1.51.66.62,1.1,1.31,1.33,2.07s.34,1.52.34,2.28v11.31ZM209.46,104.75c-.34.18-.68.35-1.02.5-.34.15-.79.28-1.35.38l-1.47.27c-.64.12-1.2.26-1.68.41-.48.16-.88.36-1.2.62-.32.26-.56.56-.72.93-.16.36-.25.82-.25,1.37,0,.46.07.85.22,1.18.14.33.34.61.6.82.25.22.55.37.89.48s.7.16,1.1.16c.21,0,.47-.02.8-.07.33-.05.67-.13,1.04-.26.36-.13.73-.31,1.09-.54.37-.23.69-.53.98-.89s.52-.81.7-1.34c.18-.53.27-1.15.27-1.87v-2.15Z"/>
      <path class="cls-2" d="M220.21,93.83h11.04c.98,0,1.92.08,2.83.25.91.17,1.71.47,2.4.89.69.42,1.24,1,1.65,1.72.41.73.61,1.64.61,2.75,0,.64-.07,1.19-.2,1.66s-.32.87-.56,1.2-.51.61-.81.84-.62.42-.95.58c1.07.38,1.88.98,2.45,1.81.56.83.84,1.81.84,2.96,0,1.01-.17,1.91-.52,2.73s-.84,1.51-1.47,2.1c-.63.58-1.4,1.03-2.31,1.35s-1.92.48-3.04.48h-11.96v-21.33ZM225.75,102.2h4.27c.63,0,1.15-.05,1.57-.14.42-.1.75-.24.99-.43s.41-.42.51-.7c.1-.28.15-.61.15-.99,0-.31-.05-.6-.15-.87-.1-.27-.26-.5-.5-.69-.24-.19-.55-.34-.94-.45-.39-.11-.88-.17-1.47-.17h-4.42v4.44ZM225.75,111.22h4.27c.8,0,1.44-.08,1.93-.25.49-.17.87-.39,1.14-.65.27-.26.44-.55.53-.86.08-.32.13-.61.13-.88,0-.52-.07-.95-.21-1.3-.14-.35-.35-.62-.64-.83-.29-.21-.68-.35-1.15-.43-.48-.08-1.05-.12-1.71-.12h-4.27v5.32Z"/>
      <path class="cls-2" d="M255.24,86.39h23.33v28.77h-6.01v-23.82h-11.29v23.82h-6.03v-28.77Z"/>
      <path class="cls-2" d="M301.27,110.95c0,.64.04,1.16.11,1.58.07.41.17.74.28.98s.25.42.4.53.31.19.48.25v.88h-6.13c-.1-.25-.22-.58-.34-.99s-.19-.91-.19-1.5c-.43.44-.85.85-1.26,1.23-.41.38-.87.71-1.38.99-.51.28-1.1.5-1.76.67-.67.16-1.47.24-2.41.24s-1.83-.14-2.63-.42-1.5-.69-2.08-1.24c-.59-.55-1.04-1.23-1.37-2.06s-.49-1.77-.49-2.86c0-.88.14-1.69.41-2.44.28-.75.66-1.41,1.16-1.98s1.12-1.04,1.84-1.41,1.54-.62,2.44-.75l5.42-.8c.2-.03.41-.07.64-.12.23-.05.44-.14.64-.26.2-.12.36-.29.49-.51.13-.22.19-.51.19-.87s-.05-.68-.17-.97c-.11-.29-.3-.55-.56-.76-.26-.22-.61-.38-1.05-.5-.44-.12-.98-.18-1.63-.18-.74,0-1.34.08-1.79.22-.45.15-.8.36-1.07.63s-.45.58-.57.94c-.12.36-.2.74-.26,1.15h-5.54c0-.26.04-.62.13-1.09.08-.46.24-.97.47-1.52.23-.55.55-1.1.96-1.66.41-.56.95-1.07,1.62-1.53.67-.46,1.49-.84,2.46-1.15.97-.3,2.12-.46,3.47-.47,1.9,0,3.45.19,4.63.58,1.18.39,2.1.89,2.76,1.51.66.62,1.1,1.31,1.33,2.07s.34,1.52.34,2.28v11.31ZM295.73,104.75c-.34.18-.68.35-1.02.5-.34.15-.79.28-1.35.38l-1.47.27c-.64.12-1.2.26-1.68.41-.48.16-.88.36-1.2.62-.32.26-.56.56-.72.93-.16.36-.25.82-.25,1.37,0,.46.07.85.22,1.18.14.33.34.61.6.82.25.22.55.37.89.48s.7.16,1.1.16c.21,0,.47-.02.8-.07.33-.05.67-.13,1.04-.26.36-.13.73-.31,1.09-.54.37-.23.69-.53.98-.89s.52-.81.7-1.34c.18-.53.27-1.15.27-1.87v-2.15Z"/>
      <path class="cls-2" d="M306.31,93.83h5.54v16.85h8.14v-16.85h5.52v16.85h2.6v9.61h-5.13v-5.13h-16.67v-21.33Z"/>
      <path class="cls-2" d="M330.95,85.45h5.54v5.23h-5.54v-5.23ZM330.95,93.83h5.54v21.33h-5.54v-21.33Z"/>
      <path class="cls-2" d="M351.72,106.47h-5.29c.05.64.18,1.24.39,1.8s.49,1.05.84,1.46.78.74,1.28.98c.5.24,1.08.36,1.73.36s1.19-.13,1.66-.38c.47-.26.86-.57,1.17-.95.31-.38.54-.78.7-1.21.15-.43.22-.82.22-1.18h5.77c0,.35-.06.81-.19,1.37-.12.56-.33,1.16-.62,1.78-.29.62-.67,1.25-1.15,1.89-.48.63-1.07,1.2-1.78,1.7-.71.5-1.54.91-2.5,1.23-.95.32-2.05.48-3.31.48-1.63,0-3.07-.25-4.32-.74-1.25-.49-2.29-1.22-3.13-2.18-.84-.96-1.48-2.14-1.92-3.55-.44-1.41-.66-3.02-.66-4.84s.24-3.42.71-4.82c.47-1.4,1.15-2.58,2.03-3.54s1.93-1.69,3.16-2.18c1.23-.49,2.61-.74,4.12-.74.65,0,1.33.05,2.03.16.7.11,1.39.28,2.06.54.68.26,1.33.59,1.95.99.62.41,1.17.91,1.66,1.52.49.61.89,1.32,1.21,2.13.32.82.53,1.76.62,2.83h-5.77c-.1-.56-.25-1.05-.43-1.48-.18-.42-.42-.78-.71-1.08-.29-.29-.65-.52-1.08-.67-.42-.15-.94-.22-1.53-.22-.65,0-1.23.13-1.73.4-.5.27-.93.62-1.29,1.07-.36.44-.64.96-.84,1.55-.2.59-.33,1.2-.38,1.84h5.29v3.7Z"/>
      <path class="cls-2" d="M364.22,93.83h5.54v7.71h8.14v-7.71h5.52v21.33h-5.52v-9.14h-8.14v9.14h-5.54v-21.33Z"/>
      <path class="cls-2" d="M393.32,98.32h-6.46v-4.5h18.44v4.5h-6.46v16.83h-5.52v-16.83Z"/>
      <path class="cls-2" d="M408.9,85.45h5.54v5.23h-5.54v-5.23ZM408.9,93.83h5.54v21.33h-5.54v-21.33Z"/>
      <path class="cls-2" d="M420.04,93.83h11.04c.98,0,1.92.08,2.83.25.91.17,1.71.47,2.4.89.69.42,1.24,1,1.65,1.72.41.73.62,1.64.62,2.75,0,.64-.07,1.19-.2,1.66-.14.47-.33.87-.56,1.2s-.5.61-.81.84c-.31.23-.62.42-.95.58,1.07.38,1.88.98,2.45,1.81.56.83.84,1.81.84,2.96,0,1.01-.17,1.91-.52,2.73s-.83,1.51-1.47,2.1c-.63.58-1.4,1.03-2.31,1.35s-1.92.48-3.04.48h-11.95v-21.33ZM425.57,102.2h4.27c.63,0,1.15-.05,1.57-.14.42-.1.75-.24.99-.43s.41-.42.51-.7.15-.61.15-.99c0-.31-.05-.6-.15-.87s-.26-.5-.5-.69-.55-.34-.94-.45c-.39-.11-.88-.17-1.47-.17h-4.43v4.44ZM425.57,111.22h4.27c.8,0,1.44-.08,1.93-.25.49-.17.87-.39,1.14-.65.27-.26.44-.55.53-.86.08-.32.13-.61.13-.88,0-.52-.07-.95-.2-1.3s-.35-.62-.65-.83c-.29-.21-.68-.35-1.15-.43-.48-.08-1.05-.12-1.71-.12h-4.27v5.32Z"/>
    </g>
  </g>
</svg>