<?xml version="1.0" encoding="UTF-8"?>
<svg id="_Слой_1" data-name="Слой 1" xmlns="http://www.w3.org/2000/svg" viewBox="0 0 540.87 147.35">
  <defs>
    <style>
      .cls-1, .cls-2 {
        fill: #133e6a;
      }

      .cls-3 {
        fill: #24a96b;
      }

      .cls-3, .cls-2 {
        fill-rule: evenodd;
      }
    </style>
  </defs>
  <g>
    <path class="cls-3" d="M64.08,14.98v36.01h0c-2.76-3.53-7.06-5.81-11.89-5.81-8.33,0-15.07,6.75-15.07,15.07,0,4.03,1.58,7.69,4.15,10.39h0s22.81,23.68,22.81,23.68h0s0,26.33,0,26.33c-2.24,1.19-5.29,2.78-6.98,3.67-1.49.78-2.91,1.52-4.13,2.15-7.08-4.51-13.02-9.16-17.96-14.12-5.48-5.5-9.71-11.4-12.88-17.93-3.88-8.01-6.32-17.21-7.64-28.03-1.19-9.83-1.47-20.9-1.04-33.52,3.65-.57,7.34-1.28,11.06-2.13,5.25-1.2,10.5-2.7,15.68-4.51,5-1.74,9.87-3.76,14.55-6.07,3.18-1.57,6.29-3.29,9.33-5.18"/>
    <path class="cls-2" d="M118,100.26c-9.17,18.9-25.33,32.99-51.64,46.5l-.05.02c-.14.07-.27.14-.43.21-.28.12-.57.21-.88.27-.3.06-.6.09-.91.09-.36,0-.71-.04-1.05-.12-.35-.08-.68-.2-1-.36h0c-.07-.04-.15-.08-.22-.12l-.15-.08c-26.22-13.53-42.34-27.62-51.49-46.49C1.03,81.32-1.15,57.71.51,25.12v-.06c0-.09.01-.18.02-.28.1-1.07.57-2.03,1.28-2.76.71-.73,1.67-1.22,2.73-1.35h.08c10.39-1.16,21.05-3.41,31.2-6.95,9.16-3.2,17.9-7.45,25.64-12.89l.12-.08c.37-.24.77-.43,1.2-.56.41-.12.86-.19,1.31-.19s.92.07,1.35.2c.44.14.86.34,1.23.59,0,0,.04.03.05.04,7.72,5.44,16.45,9.68,25.59,12.87,10.13,3.54,20.77,5.79,31.13,6.94h.02c.08.01.15.02.24.03,1.06.14,2,.64,2.7,1.37.7.73,1.16,1.69,1.25,2.76,0,.08.02.18.02.25,1.66,32.64-.51,56.3-9.68,75.19M120.93,54.62c.19-4.16.26-8.52.23-13.08-.03-4.5-.17-9.2-.4-14.13-5.2-.64-10.47-1.55-15.71-2.76-5.07-1.16-10.11-2.59-15.04-4.32-4.73-1.65-9.36-3.57-13.82-5.78-4.2-2.08-8.25-4.41-12.09-7-3.85,2.6-7.9,4.93-12.11,7.01-4.47,2.2-9.1,4.13-13.84,5.78-4.93,1.72-9.97,3.15-15.03,4.31-5.24,1.2-10.49,2.11-15.69,2.75-.71,15.17-.53,28.26.86,39.72,1.4,11.5,4.02,21.34,8.22,30,3.48,7.17,8.1,13.62,14.08,19.62,5.96,5.98,13.25,11.51,22.09,16.88.9-.45,1.97-1,3.14-1.6,1.31-.68,2.74-1.42,4.18-2.18,2.41-1.26,4.81-2.54,6.73-3.57,1.9-1.02,3.31-1.79,3.76-2.06.31-.18.58-.35.82-.5l.52-.32c-.48-.47-.87-.98-1.19-1.51-.39-.65-.66-1.35-.84-2.09-.16-.69-.23-1.41-.21-2.14.02-.76.13-1.54.33-2.32.36-1.47,1.03-3,1.88-4.5,1-1.77,2.25-3.51,3.54-5.11,6.29-7.78,12.71-11.69,19.56-15.85l.06-.04c1.71-1.04,3.44-2.09,5.19-3.22,1.77-1.15,3.57-2.38,5.39-3.76.83-.63,1.64-1.29,2.44-1.98.8-.7,1.58-1.43,2.33-2.2.74-.76,1.46-1.56,2.13-2.4.68-.84,1.33-1.72,1.93-2.65.6-.92,1.17-1.93,1.73-3.07.56-1.15,1.12-2.44,1.69-3.92.55-1.43,1.16-3.03,1.72-4.97.56-1.94,1.07-4.23,1.41-7.04ZM65.04,139.55c11.88-6.23,21.49-12.58,29.15-19.49,7.66-6.91,13.38-14.38,17.5-22.86,1.26-2.6,2.38-5.3,3.36-8.12.86-2.47,1.63-5.04,2.3-7.72-.2.23-.4.47-.6.7-.46.52-.92,1.02-1.39,1.5-.87.9-1.78,1.74-2.7,2.55-.92.8-1.88,1.58-2.87,2.33-1.97,1.5-3.88,2.81-5.75,4.02-1.86,1.2-3.7,2.32-5.5,3.42h0c-6.29,3.82-12.19,7.4-17.72,14.25-1.01,1.25-1.98,2.58-2.73,3.85-.63,1.07-1.11,2.1-1.34,3.03-.06.24-.1.47-.11.68-.01.18,0,.34.03.48h0s.03.09.04.13c.11.24.35.44.65.57.31.13.69.17,1.05.09.09-.02.18-.05.27-.09.39-.27.77-.55,1.16-.84.38-.28.76-.57,1.16-.86,1.58-1.19,3.08-2.4,4.5-3.62,1.43-1.23,2.77-2.46,4.02-3.71.69-.68,1.59-1.02,2.48-1.02.9,0,1.8.35,2.48,1.03.68.69,1.02,1.59,1.02,2.48,0,.9-.35,1.8-1.03,2.48-1.39,1.38-2.86,2.74-4.4,4.06-1.54,1.33-3.16,2.63-4.84,3.91-1.67,1.26-3.43,2.51-5.28,3.75-1.85,1.24-3.79,2.47-5.83,3.69-.52.31-2,1.13-3.97,2.19-1.96,1.06-4.41,2.36-6.85,3.64-.56.29-1.21.63-1.95,1.02l-1.38.72c.47.26.94.51,1.42.77.62.34,1.25.67,1.87,1h.03c.13.08.27.14.41.18.14.04.29.06.44.06s.31-.02.45-.06c.15-.04.29-.1.42-.17l.04-.02h0Z"/>
    <path class="cls-3" d="M64.08,50.99c2.76-3.54,7.06-5.81,11.89-5.81,8.32,0,15.07,6.75,15.07,15.07,0,4.06-1.61,7.75-4.22,10.46l-22.74,23.61v-43.33Z"/>
  </g>
  <g>
    <path class="cls-1" d="M309.12,79.74h24.24v29.9h-6.25v-24.74h-11.74v24.74h-6.25v-29.9ZM278.47,105.56h4.43c.83,0,1.49-.09,2-.26.51-.18.9-.4,1.18-.67.28-.27.46-.57.55-.9.09-.33.13-.63.13-.92,0-.54-.07-.99-.22-1.35-.14-.36-.36-.65-.67-.87-.31-.22-.71-.37-1.2-.44-.49-.08-1.09-.13-1.78-.13h-4.43v5.54ZM272.72,87.48h11.46c1.01,0,1.99.09,2.94.26.94.17,1.77.48,2.48.92.72.45,1.29,1.04,1.72,1.79.42.75.64,1.71.64,2.85,0,.67-.07,1.24-.22,1.73-.14.49-.33.91-.58,1.26-.24.34-.52.63-.84.87-.32.24-.65.44-.99.6,1.12.39,1.96,1.02,2.55,1.88.58.86.88,1.89.88,3.07,0,1.05-.18,1.99-.54,2.84-.35.85-.86,1.57-1.52,2.17-.66.6-1.46,1.07-2.39,1.4-.94.33-2,.5-3.17.5h-12.41v-22.15ZM278.47,96.19h4.42c.65,0,1.19-.05,1.62-.15.43-.1.77-.25,1.02-.45.25-.19.43-.44.53-.73.11-.29.15-.64.15-1.03,0-.33-.05-.63-.15-.91-.1-.28-.27-.51-.51-.72-.24-.19-.57-.35-.98-.47-.4-.12-.91-.17-1.52-.17h-4.58v4.62ZM261.55,98.82c-.35.19-.71.36-1.05.51-.35.16-.83.29-1.41.4l-1.52.29c-.67.13-1.25.27-1.76.43-.5.16-.92.37-1.25.64-.33.26-.58.59-.75.96-.17.38-.26.85-.26,1.42,0,.48.08.89.22,1.24.15.35.36.63.62.85.26.22.57.39.92.5.35.1.74.16,1.14.16.22,0,.49-.02.83-.07.34-.05.7-.14,1.08-.28.38-.13.76-.32,1.14-.56.38-.24.72-.55,1.01-.93.3-.38.55-.84.74-1.39.19-.55.28-1.2.28-1.94v-2.24ZM267.3,105.26c0,.67.03,1.21.11,1.64.08.42.17.76.3,1.01.12.26.26.44.42.56.15.11.32.19.49.25v.92h-6.35c-.11-.26-.23-.6-.35-1.03-.13-.43-.19-.94-.19-1.55-.45.46-.88.89-1.31,1.28-.42.4-.9.74-1.44,1.03-.53.29-1.14.52-1.83.69-.69.17-1.53.26-2.51.26s-1.9-.15-2.73-.44c-.83-.29-1.56-.72-2.17-1.29-.61-.57-1.08-1.28-1.42-2.13-.34-.85-.51-1.85-.51-2.97,0-.91.15-1.75.43-2.53.28-.78.69-1.46,1.21-2.05.52-.59,1.16-1.08,1.91-1.46.76-.39,1.6-.65,2.53-.78l5.63-.83c.2-.03.42-.07.66-.13.24-.06.46-.15.66-.27.21-.13.38-.31.51-.53.13-.23.2-.53.2-.91s-.05-.7-.17-1.01c-.11-.31-.31-.57-.58-.79-.27-.22-.64-.4-1.09-.52-.46-.12-1.02-.18-1.7-.18-.77,0-1.39.08-1.86.24-.46.15-.83.37-1.1.65-.28.28-.47.6-.59.97-.12.38-.21.77-.26,1.19h-5.76c0-.27.05-.64.13-1.13.09-.48.26-1.01.49-1.57.24-.57.57-1.15.99-1.72.43-.58.99-1.12,1.69-1.6.7-.49,1.56-.88,2.55-1.19,1.01-.31,2.21-.47,3.6-.49,1.98,0,3.58.2,4.8.6,1.23.4,2.18.92,2.87,1.57.68.64,1.15,1.36,1.38,2.16.24.79.35,1.58.35,2.37v11.76ZM234.28,91.98c-.92,0-1.69.19-2.33.59-.63.4-1.14.9-1.52,1.53-.39.63-.67,1.33-.85,2.12-.17.78-.27,1.57-.27,2.34,0,.42.02.87.07,1.37.05.49.14.99.28,1.51.13.51.32,1,.56,1.47.24.48.54.89.9,1.26.37.37.81.66,1.33.89.51.22,1.12.33,1.82.33s1.31-.11,1.83-.33c.51-.23.96-.52,1.33-.89.36-.37.67-.78.9-1.26.24-.47.42-.97.56-1.47.14-.51.23-1.01.28-1.51.05-.5.07-.95.07-1.37,0-.77-.09-1.55-.26-2.34-.17-.79-.46-1.49-.85-2.12-.38-.62-.9-1.13-1.53-1.53-.64-.4-1.41-.59-2.32-.59ZM223.79,87.48h5.5v3.16h.08c.4-.67.81-1.24,1.24-1.72.43-.48.92-.88,1.44-1.19.53-.31,1.11-.54,1.75-.69.65-.15,1.37-.22,2.19-.22.67,0,1.37.08,2.09.24.72.17,1.42.42,2.1.78.69.36,1.33.82,1.94,1.4.61.58,1.15,1.28,1.6,2.12.46.84.83,1.83,1.1,2.94.27,1.12.41,2.39.41,3.83,0,1.79-.2,3.43-.58,4.92-.39,1.49-.97,2.77-1.75,3.84-.78,1.07-1.76,1.9-2.95,2.5-1.19.6-2.58.9-4.18.9-.56,0-1.12-.06-1.69-.16-.57-.11-1.12-.29-1.67-.55-.54-.26-1.05-.61-1.53-1.05-.48-.44-.91-.99-1.27-1.66h-.08v11.33h-5.75v-30.73ZM194.05,79.74h24.24v29.9h-6.25v-24.74h-11.74v24.74h-6.25v-29.9ZM533.8,49.18c-.35.19-.71.36-1.05.51-.35.16-.83.29-1.41.39l-1.52.29c-.67.13-1.25.27-1.76.43-.5.16-.92.37-1.25.64-.33.26-.58.59-.75.96-.17.38-.26.85-.26,1.42,0,.48.08.89.22,1.24.15.35.36.63.63.85.26.22.57.39.92.5.35.1.73.16,1.14.16.22,0,.49-.02.83-.07.34-.05.7-.14,1.08-.28.37-.13.76-.32,1.14-.56.38-.24.71-.55,1.01-.93.3-.37.55-.84.74-1.39.19-.55.28-1.2.28-1.94v-2.24ZM539.55,55.62c0,.67.04,1.21.11,1.64.08.42.17.76.3,1.01.12.26.26.44.42.56.15.11.32.19.49.25v.92h-6.35c-.11-.26-.23-.6-.35-1.03-.13-.43-.19-.94-.19-1.55-.44.46-.88.89-1.31,1.28-.42.4-.9.74-1.43,1.03-.53.29-1.14.52-1.83.69-.69.17-1.53.26-2.5.26s-1.9-.15-2.74-.44c-.83-.29-1.55-.72-2.17-1.29-.61-.57-1.08-1.28-1.42-2.13-.34-.85-.51-1.85-.51-2.97,0-.91.15-1.75.43-2.53.29-.78.69-1.46,1.21-2.05.52-.59,1.16-1.08,1.91-1.47.76-.39,1.6-.65,2.53-.78l5.63-.83c.2-.03.42-.07.66-.13.24-.06.46-.15.66-.27.21-.13.38-.31.51-.53.13-.23.2-.53.2-.91s-.06-.7-.17-1.01c-.11-.31-.31-.57-.58-.79-.27-.22-.64-.4-1.09-.52-.46-.12-1.02-.18-1.7-.18-.77,0-1.39.08-1.86.24-.46.15-.83.37-1.1.65-.28.28-.47.6-.59.97-.13.37-.22.77-.26,1.19h-5.76c0-.27.05-.65.13-1.13.09-.48.26-1.01.49-1.57.24-.57.57-1.15.99-1.72.43-.58.99-1.12,1.69-1.6.7-.49,1.55-.88,2.55-1.19,1.01-.31,2.21-.47,3.6-.48,1.98,0,3.58.2,4.8.6,1.23.4,2.18.92,2.87,1.57.68.64,1.15,1.36,1.38,2.16.24.79.35,1.58.35,2.37v11.76ZM496.37,37.84h5.75v8.41l8.29-8.41h7.65l-9.16,9.21,9.54,12.95h-7.5l-6.5-9.36-2.32,2.34v7.02h-5.75v-22.15ZM490.15,60h-5.75v-17.49h-6.79l-.13,4.13c-.07,2.32-.21,4.35-.44,6.1-.24,1.74-.61,3.21-1.13,4.38-.52,1.17-1.22,2.05-2.11,2.65-.89.6-2.02.9-3.4.9-.65,0-1.22-.04-1.71-.11-.49-.08-.89-.18-1.2-.31v-4.82c.19.08.43.16.72.22.29.07.65.11,1.07.11s.83-.13,1.16-.4c.34-.26.63-.74.88-1.44.24-.7.43-1.67.57-2.89.13-1.24.22-2.82.26-4.78l.16-8.39h17.83v22.15ZM457.63,29.14h5.75v5.41h-5.75v-5.41ZM457.63,37.83h5.75v22.16h-5.75v-22.16ZM432.03,37.84h19.95v22.15h-5.75v-17.49h-8.45v17.49h-5.75v-22.15ZM421.46,39.92c-.08-.29-.18-.61-.31-.99-.12-.38-.28-.75-.5-1.13-.21-.37-.47-.75-.79-1.12-.32-.36-.71-.69-1.19-.97-.48-.29-1.05-.52-1.71-.69-.67-.17-1.44-.26-2.34-.26-.38,0-.83.05-1.35.14-.51.1-1.04.28-1.58.54-.54.27-1.08.63-1.61,1.11-.53.47-1,1.09-1.41,1.86-.42.76-.75,1.69-1.01,2.77-.26,1.09-.39,2.37-.39,3.87,0,1.61.17,3.05.51,4.33.34,1.27.83,2.35,1.46,3.24.64.87,1.41,1.55,2.31,2.02.9.46,1.92.7,3.06.7,1.31,0,2.38-.2,3.21-.61.83-.4,1.48-.9,1.98-1.48.5-.58.87-1.19,1.11-1.83.24-.64.43-1.19.57-1.67h6.2c-.33,1.87-.9,3.5-1.69,4.87-.78,1.38-1.74,2.52-2.87,3.43-1.13.91-2.39,1.59-3.79,2.03-1.4.45-2.9.67-4.48.67-2.22,0-4.19-.37-5.91-1.11-1.71-.74-3.17-1.79-4.34-3.16-1.17-1.37-2.06-3.02-2.67-4.96-.61-1.93-.92-4.09-.92-6.48,0-1.85.17-3.51.53-5,.35-1.49.85-2.82,1.48-3.98.63-1.16,1.37-2.16,2.23-3,.85-.85,1.78-1.55,2.8-2.1,1.01-.55,2.07-.96,3.18-1.22,1.12-.26,2.24-.4,3.38-.4,1.62,0,3.07.17,4.33.51,1.26.34,2.36.8,3.31,1.37.95.57,1.76,1.22,2.43,1.95.67.74,1.22,1.49,1.65,2.27.42.78.74,1.56.95,2.34.21.78.35,1.49.4,2.15h-6.24ZM379.38,49.18c-.35.19-.71.36-1.05.51-.35.16-.83.29-1.41.39l-1.52.29c-.67.13-1.25.27-1.76.43-.5.16-.92.37-1.25.64-.33.26-.58.59-.75.96-.17.38-.26.85-.26,1.42,0,.48.08.89.22,1.24.15.35.36.63.63.85.26.22.57.39.92.5.35.1.73.16,1.14.16.22,0,.49-.02.83-.07.34-.05.7-.14,1.08-.28.38-.13.76-.32,1.14-.56.38-.24.71-.55,1.01-.93.3-.37.55-.84.74-1.39.19-.55.28-1.2.28-1.94v-2.24ZM385.13,55.62c0,.67.04,1.21.11,1.64.08.42.17.76.3,1.01.12.26.26.44.42.56.15.11.32.19.49.25v.92h-6.35c-.11-.26-.23-.6-.35-1.03-.13-.43-.19-.94-.19-1.55-.44.46-.88.89-1.31,1.28-.42.4-.9.74-1.44,1.03-.53.29-1.14.52-1.83.69-.69.17-1.53.26-2.51.26s-1.9-.15-2.74-.44c-.83-.29-1.55-.72-2.17-1.29-.61-.57-1.08-1.28-1.42-2.13-.34-.85-.51-1.85-.51-2.97,0-.91.15-1.75.43-2.53.29-.78.69-1.46,1.21-2.05.52-.59,1.16-1.08,1.91-1.47.76-.39,1.6-.65,2.53-.78l5.63-.83c.2-.03.42-.07.66-.13.24-.06.46-.15.66-.27.21-.13.38-.31.51-.53.13-.23.2-.53.2-.91s-.06-.7-.17-1.01c-.11-.31-.31-.57-.57-.79-.27-.22-.64-.4-1.09-.52-.46-.12-1.02-.18-1.7-.18-.77,0-1.39.08-1.86.24-.46.15-.83.37-1.1.65-.28.28-.47.6-.59.97-.12.37-.22.77-.26,1.19h-5.76c0-.27.05-.65.13-1.13.09-.48.26-1.01.49-1.57.24-.57.57-1.15.99-1.72.43-.58.99-1.12,1.69-1.6.7-.49,1.55-.88,2.55-1.19,1.01-.31,2.21-.47,3.6-.48,1.98,0,3.58.2,4.8.6,1.23.4,2.18.92,2.87,1.57.68.64,1.15,1.36,1.38,2.16.24.79.35,1.58.35,2.37v11.76ZM341.95,37.84h5.75v8.41l8.29-8.41h7.65l-9.16,9.21,9.54,12.95h-7.5l-6.5-9.36-2.32,2.34v7.02h-5.75v-22.15ZM323.41,55.67h4.86c.44,0,.89-.03,1.33-.11.44-.08.84-.22,1.2-.43.35-.21.65-.5.86-.87.22-.38.33-.86.33-1.46s-.11-1.06-.33-1.44c-.23-.38-.53-.68-.92-.9-.39-.22-.83-.37-1.34-.46-.51-.09-1.05-.13-1.62-.13h-4.37v5.79ZM317.66,37.84h5.75v7.7h5.87c1.37,0,2.59.14,3.67.42,1.08.28,1.99.73,2.73,1.33.74.6,1.31,1.35,1.71,2.26.4.92.59,2,.59,3.24,0,1.12-.16,2.09-.49,2.89-.33.8-.74,1.47-1.25,2.01-.51.53-1.08.95-1.7,1.26-.62.31-1.23.53-1.83.69-.6.15-1.15.25-1.66.29-.51.04-.89.06-1.17.06h-12.24v-22.15ZM307.52,45.67c-.1-.58-.26-1.1-.45-1.53-.19-.45-.44-.82-.74-1.13-.31-.31-.68-.53-1.12-.69-.44-.16-.97-.24-1.6-.24-.96,0-1.73.22-2.31.67-.58.45-1.02,1.01-1.33,1.69-.31.67-.51,1.42-.62,2.22-.1.8-.15,1.55-.15,2.26s.04,1.5.12,2.3c.08.81.27,1.55.57,2.22.3.67.74,1.22,1.32,1.65.58.44,1.38.65,2.4.65.67,0,1.24-.13,1.73-.4.49-.26.9-.6,1.22-.99.32-.4.56-.81.72-1.26.15-.44.23-.85.23-1.22h6c0,.37-.07.84-.2,1.42-.13.58-.35,1.2-.64,1.85-.3.65-.69,1.3-1.19,1.96-.49.65-1.11,1.24-1.85,1.77-.74.52-1.6.94-2.59,1.28-.99.33-2.14.5-3.44.5-1.69,0-3.19-.26-4.48-.77-1.3-.52-2.38-1.27-3.25-2.27-.87-1-1.54-2.23-1.99-3.69-.45-1.46-.68-3.14-.68-5.02s.25-3.55.74-5.01c.49-1.46,1.19-2.68,2.1-3.68.91-1,2.01-1.75,3.28-2.27,1.28-.51,2.71-.77,4.28-.77.67,0,1.38.06,2.1.16.73.11,1.44.3,2.15.56.71.26,1.38.61,2.03,1.03.64.42,1.22.95,1.73,1.58.51.63.92,1.37,1.26,2.22.33.85.55,1.83.65,2.94h-6ZM269.11,37.84h5.75v8h8.45v-8h5.75v22.15h-5.75v-9.49h-8.45v9.49h-5.75v-22.15ZM260.91,29.64h4.58v4.91h-4.58v-4.91ZM253.99,29.64h4.58v4.91h-4.58v-4.91ZM256.87,37.83h5.75v22.16h-5.75v-22.16ZM244.91,49.18c-.35.19-.71.36-1.05.51-.35.16-.83.29-1.41.39l-1.52.29c-.67.13-1.25.27-1.76.43-.5.16-.92.37-1.25.64-.33.26-.58.59-.75.96-.17.38-.26.85-.26,1.42,0,.48.08.89.22,1.24.15.35.36.63.62.85.26.22.57.39.92.5.35.1.74.16,1.14.16.22,0,.49-.02.83-.07.34-.05.7-.14,1.08-.28.38-.13.76-.32,1.14-.56.38-.24.72-.55,1.01-.93.3-.37.55-.84.74-1.39.19-.55.28-1.2.28-1.94v-2.24ZM250.66,55.62c0,.67.03,1.21.11,1.64.08.42.17.76.3,1.01.12.26.26.44.42.56.15.11.32.19.49.25v.92h-6.35c-.11-.26-.23-.6-.36-1.03-.13-.43-.19-.94-.19-1.55-.44.46-.88.89-1.31,1.28-.42.4-.9.74-1.44,1.03-.53.29-1.14.52-1.83.69-.69.17-1.53.26-2.51.26s-1.9-.15-2.73-.44c-.83-.29-1.55-.72-2.17-1.29-.61-.57-1.08-1.28-1.42-2.13-.34-.85-.51-1.85-.51-2.97,0-.91.15-1.75.43-2.53.28-.78.69-1.46,1.21-2.05.52-.59,1.16-1.08,1.91-1.47.76-.39,1.6-.65,2.53-.78l5.63-.83c.2-.03.42-.07.66-.13.24-.06.46-.15.66-.27.21-.13.38-.31.51-.53.13-.23.2-.53.2-.91s-.06-.7-.17-1.01c-.11-.31-.31-.57-.57-.79-.27-.22-.64-.4-1.09-.52-.46-.12-1.02-.18-1.7-.18-.77,0-1.39.08-1.86.24-.47.15-.83.37-1.1.65-.28.28-.47.6-.59.97-.12.37-.21.77-.26,1.19h-5.76c0-.27.05-.65.13-1.13.09-.48.26-1.01.49-1.57.24-.57.57-1.15.99-1.72.43-.58.99-1.12,1.69-1.6.7-.49,1.55-.88,2.55-1.19,1.01-.31,2.21-.47,3.6-.48,1.98,0,3.58.2,4.8.6,1.23.4,2.18.92,2.87,1.57.68.64,1.15,1.36,1.38,2.16.24.79.35,1.58.35,2.37v11.76ZM217.64,42.34c-.92,0-1.69.19-2.33.59-.63.4-1.14.9-1.52,1.53-.39.63-.67,1.33-.85,2.12-.17.78-.26,1.57-.26,2.34,0,.42.02.87.07,1.38.05.49.14.99.28,1.51.13.51.32,1,.56,1.47.24.48.54.89.9,1.26.37.37.81.66,1.33.89.51.22,1.12.33,1.82.33s1.31-.11,1.83-.33c.51-.23.96-.52,1.33-.89.36-.37.67-.78.9-1.26.24-.47.42-.97.56-1.47.14-.51.23-1.01.28-1.51.05-.5.07-.95.07-1.38,0-.77-.09-1.55-.26-2.34-.17-.79-.46-1.49-.85-2.12-.38-.62-.9-1.13-1.53-1.53-.64-.4-1.41-.59-2.32-.59ZM207.14,37.84h5.5v3.16h.08c.4-.67.81-1.24,1.24-1.72.43-.48.92-.88,1.44-1.19.53-.31,1.11-.54,1.75-.69.65-.15,1.37-.22,2.19-.22.67,0,1.37.08,2.09.24.72.17,1.42.42,2.1.78.69.36,1.33.82,1.94,1.4.61.58,1.15,1.28,1.6,2.12.47.84.83,1.83,1.1,2.94.27,1.12.41,2.39.41,3.83,0,1.79-.2,3.43-.58,4.92-.39,1.49-.97,2.77-1.75,3.84-.78,1.07-1.76,1.9-2.95,2.5-1.19.6-2.58.9-4.18.9-.56,0-1.12-.06-1.69-.16-.57-.11-1.12-.29-1.67-.55-.54-.26-1.05-.61-1.53-1.05-.48-.44-.91-.99-1.27-1.66h-.08v11.33h-5.75v-30.73ZM182.04,37.84h5.75v8.41l8.29-8.41h7.65l-9.15,9.21,9.54,12.95h-7.5l-6.5-9.36-2.32,2.34v7.02h-5.75v-22.15ZM156.8,54.33c.4.26.85.46,1.36.61.52.15,1.1.22,1.75.22.85,0,1.53-.25,2.01-.75.49-.51.83-1.14,1.02-1.89l-10.59-22.43h7.03l6.8,16.06,5.96-16.06h6.71l-9.54,22.07c-1.25,2.91-2.57,5.08-3.96,6.48-1.4,1.4-2.96,2.1-4.68,2.1-.54,0-1.01-.03-1.42-.08-.4-.05-.74-.12-1.03-.2-.29-.08-.55-.16-.78-.24-.22-.08-.44-.15-.64-.22v-5.66Z"/>
    <path class="cls-1" d="M486.1,105.56h4.43c.83,0,1.49-.09,2-.26.51-.18.9-.4,1.18-.67.28-.27.46-.57.55-.9.09-.33.13-.63.13-.92,0-.54-.07-.99-.22-1.35-.14-.36-.36-.65-.67-.87-.31-.22-.71-.37-1.2-.44-.49-.08-1.09-.13-1.78-.13h-4.43v5.54ZM480.35,87.48h11.46c1.01,0,1.99.09,2.94.26.94.17,1.77.48,2.48.92.72.45,1.29,1.04,1.72,1.79.42.75.64,1.71.64,2.85,0,.67-.07,1.24-.22,1.73-.14.49-.33.91-.58,1.26-.24.34-.52.63-.84.87-.32.24-.65.44-.99.6,1.12.39,1.96,1.02,2.55,1.88.58.86.87,1.89.87,3.07,0,1.05-.18,1.99-.54,2.84-.35.85-.86,1.57-1.52,2.17-.66.6-1.46,1.07-2.39,1.4-.94.33-2,.5-3.17.5h-12.41v-22.15ZM486.1,96.19h4.42c.65,0,1.19-.05,1.62-.15.43-.1.77-.25,1.02-.45.25-.19.43-.44.53-.73.1-.29.15-.64.15-1.03,0-.33-.05-.63-.15-.91-.1-.28-.27-.51-.51-.72-.24-.19-.57-.35-.98-.47-.4-.12-.91-.17-1.52-.17h-4.58v4.62ZM468.79,78.78h5.75v5.41h-5.75v-5.41ZM468.79,87.47h5.75v22.16h-5.75v-22.16ZM452.59,92.15h-6.71v-4.66h19.17v4.66h-6.71v17.49h-5.75v-17.49ZM422.36,87.48h5.75v8h8.45v-8h5.75v22.15h-5.75v-9.5h-8.45v9.5h-5.75v-22.15ZM409.36,100.6h-5.49c.05.67.19,1.29.41,1.87s.51,1.09.87,1.52c.37.43.81.76,1.33,1.02.52.25,1.12.38,1.8.38s1.24-.13,1.73-.4c.49-.26.9-.6,1.22-.99.33-.4.56-.81.72-1.26.15-.44.24-.85.24-1.22h6c0,.37-.06.84-.2,1.42s-.34,1.2-.64,1.85c-.3.65-.69,1.3-1.19,1.96-.49.65-1.11,1.24-1.85,1.77-.74.52-1.6.94-2.59,1.28-.99.33-2.13.5-3.44.5-1.69,0-3.19-.26-4.48-.77-1.29-.52-2.38-1.27-3.25-2.27-.87-1-1.54-2.23-1.99-3.69-.45-1.46-.68-3.14-.68-5.02s.25-3.55.74-5.01c.49-1.46,1.19-2.68,2.1-3.68.91-1,2.01-1.75,3.28-2.27,1.28-.51,2.71-.77,4.28-.77.68,0,1.38.06,2.1.16.73.11,1.44.3,2.15.56.71.26,1.38.61,2.03,1.03.64.42,1.22.95,1.73,1.58.51.63.93,1.37,1.26,2.22.33.85.54,1.83.64,2.94h-6c-.11-.58-.26-1.1-.45-1.53-.19-.44-.44-.82-.74-1.13-.31-.31-.67-.53-1.12-.69-.44-.16-.97-.24-1.6-.24-.68,0-1.28.14-1.8.42-.52.28-.97.65-1.35,1.11-.37.46-.66.99-.87,1.6-.21.61-.34,1.24-.4,1.91h5.49v3.83ZM387.79,78.78h5.75v5.41h-5.75v-5.41ZM387.79,87.47h5.75v22.16h-5.75v-22.16ZM362.19,87.48h5.75v17.49h8.45s0-17.49,0-17.49h5.75v17.49h2.71v10h-5.33v-5.33h-17.32v-22.15ZM351.19,98.82c-.35.19-.71.36-1.06.51-.35.16-.83.29-1.41.4l-1.52.29c-.67.13-1.25.27-1.76.43-.5.16-.92.37-1.25.64-.33.26-.58.59-.75.96-.17.38-.26.85-.26,1.42,0,.48.08.89.22,1.24.15.35.36.63.62.85.26.22.57.39.92.5.36.1.74.16,1.14.16.21,0,.49-.02.83-.07.34-.05.7-.14,1.08-.28.38-.13.76-.32,1.14-.56.38-.24.71-.55,1.01-.93.3-.38.55-.84.74-1.39.19-.55.28-1.2.28-1.94v-2.24ZM356.93,105.26c0,.67.03,1.21.11,1.64.08.42.17.76.3,1.01.12.26.26.44.42.56.15.11.32.19.49.25v.92h-6.35c-.11-.26-.23-.6-.35-1.03-.13-.43-.19-.94-.19-1.55-.45.46-.88.89-1.31,1.28-.42.4-.9.74-1.44,1.03-.53.29-1.14.52-1.83.69-.69.17-1.53.26-2.51.26s-1.9-.15-2.73-.44c-.83-.29-1.55-.72-2.17-1.29-.61-.57-1.08-1.28-1.42-2.13-.34-.85-.51-1.85-.51-2.97,0-.91.15-1.75.43-2.53.28-.78.69-1.46,1.21-2.05.52-.59,1.16-1.08,1.91-1.46.76-.39,1.6-.65,2.53-.78l5.63-.83c.2-.03.42-.07.66-.13.24-.06.46-.15.66-.27.21-.13.38-.31.51-.53.13-.23.2-.53.2-.91s-.06-.7-.17-1.01c-.11-.31-.31-.57-.58-.79-.27-.22-.64-.4-1.09-.52-.46-.12-1.02-.18-1.7-.18-.77,0-1.39.08-1.86.24-.46.15-.83.37-1.1.65-.28.28-.47.6-.59.97-.13.38-.22.77-.27,1.19h-5.76c0-.27.05-.64.13-1.13.09-.48.26-1.01.49-1.57.24-.57.57-1.15.99-1.72.43-.58.99-1.12,1.69-1.6.7-.49,1.55-.88,2.55-1.19,1.01-.31,2.21-.47,3.6-.49,1.98,0,3.58.2,4.8.6,1.23.4,2.18.92,2.87,1.57.68.64,1.14,1.36,1.38,2.16.24.79.35,1.58.35,2.37v11.76Z"/>
  </g>
</svg>