<?xml version="1.0" encoding="UTF-8"?>
<svg id="_Слой_1" data-name="Слой 1" xmlns="http://www.w3.org/2000/svg" viewBox="0 0 241.21 241.21">
  <defs>
    <style>
      .cls-1 {
        fill: #fff;
      }

      .cls-2 {
        fill: #23aa6b;
      }
    </style>
  </defs>
  <rect class="cls-2" width="241.21" height="241.21" rx="57.62" ry="57.62"/>
  <path class="cls-1" d="M169.66,138.31c-3.08-2.79-7.06-4.32-11.2-4.32-4.71,0-9.23,2.01-12.4,5.51l-4.26,4.71c-1.55,1.71-2.71,3.69-3.45,5.88l-.38,1.13c-.25.75-.8,1.37-1.52,1.7-.72.33-1.54.36-2.28.07l-1.12-.44c-19.69-7.77-35.73-22.49-45.17-41.45l-.6-1.21c-.38-.76-.4-1.65-.06-2.44.34-.78,1-1.37,1.82-1.62l1.29-.39c2.9-.87,5.52-2.53,7.56-4.79h0s4.26-4.71,4.26-4.71c3-3.31,4.52-7.59,4.3-12.05-.22-4.46-2.17-8.56-5.48-11.56l-7.2-6.5c-3.08-2.78-7.06-4.32-11.2-4.32-4.72,0-9.24,2-12.4,5.5l-4.26,4.72c-.48.53-.93,1.1-1.34,1.69-.07.11-.15.2-.23.3l-.2.22c-.08.09-.17.18-.27.26-2.84,2.43-6.39,9.58-4.5,19.32,8.92,46.46,48.05,81.85,95.16,86.07,5.64.51,10.99-.59,15.08-3.1,1.61-.93,2.99-2.04,4.15-3.33l4.27-4.72c6.17-6.83,5.65-17.42-1.19-23.6l-7.2-6.51Z"/>
</svg>